<svg id="SvgjsSvg2928" width="360" height="360" xmlns="http://www.w3.org/2000/svg" version="1.1" xmlns:xlink="http://www.w3.org/1999/xlink" xmlns:svgjs="http://svgjs.com/svgjs"><defs id="SvgjsDefs2929"></defs><g id="SvgjsG2930"><svg xmlns="http://www.w3.org/2000/svg" viewBox="0 0 450 350" width="360" height="360"><path fill="#ffffff" d="M360.313 230.826H81.118a11.25 11.25 0 0 1-11.237-11.238V42.718A11.25 11.25 0 0 1 81.118 31.48h279.195a11.25 11.25 0 0 1 11.237 11.238v176.87a11.25 11.25 0 0 1-11.238 11.238ZM81.118 31.98a10.75 10.75 0 0 0-10.737 10.738v176.87a10.749 10.749 0 0 0 10.737 10.738h279.195a10.75 10.75 0 0 0 10.737-10.738V42.718a10.75 10.75 0 0 0-10.738-10.738Z" class="colorfff svgShape"></path><path fill="#2f3e46" d="M81.495 31.73h277.956A11.849 11.849 0 0 1 371.3 43.58v17.722H69.646V43.579a11.849 11.849 0 0 1 11.85-11.848Z" class="color0a0909 svgShape"></path><path fill="#ffffff" d="M91.49 73.046h13.313a2.228 2.228 0 0 1 2.227 2.228v19.46a2.228 2.228 0 0 1-2.227 2.228H91.49a2.228 2.228 0 0 1-2.228-2.228v-19.46a2.228 2.228 0 0 1 2.228-2.228Z" class="colorfff svgShape"></path><path fill="#2f3e46" d="M104.624 77.77h-12.77a.25.25 0 0 1 0-.5h12.77a.25.25 0 1 1 0 .5ZM104.624 81.087h-12.77a.25.25 0 0 1 0-.5h12.77a.25.25 0 0 1 0 .5ZM104.624 84.405h-12.77a.25.25 0 0 1 0-.5h12.77a.25.25 0 0 1 0 .5ZM104.624 87.722h-12.77a.25.25 0 0 1 0-.5h12.77a.25.25 0 1 1 0 .5ZM104.624 91.04h-12.77a.25.25 0 0 1 0-.5h12.77a.25.25 0 0 1 0 .5Z" class="color0a0909 svgShape"></path><rect width="17.768" height="23.916" x="137.797" y="73.046" fill="#ffffff" rx="2.228" class="colorfff svgShape"></rect><path fill="#2f3e46" d="M153.16 77.77h-12.771a.25.25 0 0 1 0-.5h12.77a.25.25 0 0 1 0 .5ZM153.16 81.087h-12.771a.25.25 0 0 1 0-.5h12.77a.25.25 0 0 1 0 .5ZM153.16 84.405h-12.771a.25.25 0 0 1 0-.5h12.77a.25.25 0 0 1 0 .5ZM153.16 87.722h-12.771a.25.25 0 0 1 0-.5h12.77a.25.25 0 0 1 0 .5ZM153.16 91.04h-12.771a.25.25 0 0 1 0-.5h12.77a.25.25 0 0 1 0 .5Z" class="color0a0909 svgShape"></path><path fill="#ffffff" d="M188.56 73.046h13.313a2.228 2.228 0 0 1 2.227 2.228v19.46a2.228 2.228 0 0 1-2.228 2.228H188.56a2.228 2.228 0 0 1-2.228-2.228v-19.46a2.228 2.228 0 0 1 2.228-2.228Z" class="colorfff svgShape"></path><path fill="#2f3e46" d="M201.694 77.77h-12.771a.25.25 0 0 1 0-.5h12.771a.25.25 0 0 1 0 .5ZM201.694 81.087h-12.771a.25.25 0 0 1 0-.5h12.771a.25.25 0 0 1 0 .5ZM201.694 84.405h-12.771a.25.25 0 0 1 0-.5h12.771a.25.25 0 0 1 0 .5ZM201.694 87.722h-12.771a.25.25 0 0 1 0-.5h12.771a.25.25 0 0 1 0 .5ZM201.694 91.04h-12.771a.25.25 0 1 1 0-.5h12.771a.25.25 0 0 1 0 .5Z" class="color0a0909 svgShape"></path><path fill="#ffffff" d="M237.094 73.046h13.313a2.228 2.228 0 0 1 2.228 2.228v19.46a2.228 2.228 0 0 1-2.228 2.228h-13.313a2.228 2.228 0 0 1-2.227-2.228v-19.46a2.228 2.228 0 0 1 2.227-2.228Z" class="colorfff svgShape"></path><path fill="#2f3e46" d="M250.229 77.77h-12.77a.25.25 0 0 1 0-.5h12.77a.25.25 0 0 1 0 .5ZM250.229 81.087h-12.77a.25.25 0 0 1 0-.5h12.77a.25.25 0 0 1 0 .5ZM250.229 84.405h-12.77a.25.25 0 0 1 0-.5h12.77a.25.25 0 0 1 0 .5ZM250.229 87.722h-12.77a.25.25 0 0 1 0-.5h12.77a.25.25 0 0 1 0 .5ZM250.229 91.04h-12.77a.25.25 0 0 1 0-.5h12.77a.25.25 0 1 1 0 .5Z" class="color0a0909 svgShape"></path><path fill="#ffffff" d="M285.63 73.046h13.312a2.228 2.228 0 0 1 2.228 2.228v19.46a2.228 2.228 0 0 1-2.228 2.228H285.63a2.228 2.228 0 0 1-2.228-2.228v-19.46a2.228 2.228 0 0 1 2.228-2.228Z" class="colorfff svgShape"></path><path fill="#2f3e46" d="M298.764 77.77h-12.77a.25.25 0 0 1 0-.5h12.77a.25.25 0 0 1 0 .5ZM298.764 81.087h-12.77a.25.25 0 0 1 0-.5h12.77a.25.25 0 0 1 0 .5ZM298.764 84.405h-12.77a.25.25 0 0 1 0-.5h12.77a.25.25 0 0 1 0 .5ZM298.764 87.722h-12.77a.25.25 0 0 1 0-.5h12.77a.25.25 0 0 1 0 .5ZM298.764 91.04h-12.77a.25.25 0 0 1 0-.5h12.77a.25.25 0 0 1 0 .5Z" class="color0a0909 svgShape"></path><path fill="#ffffff" d="M334.164 73.046h13.313a2.228 2.228 0 0 1 2.228 2.228v19.46a2.228 2.228 0 0 1-2.228 2.228h-13.313a2.228 2.228 0 0 1-2.228-2.228v-19.46a2.228 2.228 0 0 1 2.228-2.228Z" class="colorfff svgShape"></path><path fill="#2f3e46" d="M347.299 77.77h-12.772a.25.25 0 0 1 0-.5H347.3a.25.25 0 0 1 0 .5ZM347.299 81.087h-12.772a.25.25 0 0 1 0-.5H347.3a.25.25 0 0 1 0 .5ZM347.299 84.405h-12.772a.25.25 0 0 1 0-.5H347.3a.25.25 0 0 1 0 .5ZM347.299 87.722h-12.772a.25.25 0 0 1 0-.5H347.3a.25.25 0 0 1 0 .5ZM347.299 91.04h-12.772a.25.25 0 0 1 0-.5H347.3a.25.25 0 0 1 0 .5Z" class="color0a0909 svgShape"></path><path fill="#ffffff" d="M91.49 126.637h13.313a2.228 2.228 0 0 1 2.227 2.228v19.46a2.228 2.228 0 0 1-2.227 2.228H91.49a2.228 2.228 0 0 1-2.228-2.227v-19.46a2.228 2.228 0 0 1 2.228-2.229Z" class="colorfff svgShape"></path><path fill="#2f3e46" d="M104.624 131.36h-12.77a.25.25 0 0 1 0-.5h12.77a.25.25 0 1 1 0 .5ZM104.624 134.678h-12.77a.25.25 0 0 1 0-.5h12.77a.25.25 0 1 1 0 .5ZM104.624 137.996h-12.77a.25.25 0 0 1 0-.5h12.77a.25.25 0 0 1 0 .5ZM104.624 141.313h-12.77a.25.25 0 0 1 0-.5h12.77a.25.25 0 1 1 0 .5ZM104.624 144.631h-12.77a.25.25 0 0 1 0-.5h12.77a.25.25 0 1 1 0 .5Z" class="color0a0909 svgShape"></path><rect width="17.768" height="23.916" x="137.797" y="126.637" fill="#ffffff" rx="2.228" class="colorfff svgShape"></rect><path fill="#2f3e46" d="M153.16 131.36h-12.771a.25.25 0 0 1 0-.5h12.77a.25.25 0 0 1 0 .5ZM153.16 134.678h-12.771a.25.25 0 0 1 0-.5h12.77a.25.25 0 0 1 0 .5ZM153.16 137.996h-12.771a.25.25 0 1 1 0-.5h12.77a.25.25 0 0 1 0 .5ZM153.16 141.313h-12.771a.25.25 0 0 1 0-.5h12.77a.25.25 0 0 1 0 .5ZM153.16 144.631h-12.771a.25.25 0 0 1 0-.5h12.77a.25.25 0 0 1 0 .5Z" class="color0a0909 svgShape"></path><path fill="#ffffff" d="M188.56 126.637h13.313a2.228 2.228 0 0 1 2.227 2.228v19.46a2.228 2.228 0 0 1-2.228 2.228H188.56a2.228 2.228 0 0 1-2.228-2.228v-19.46a2.228 2.228 0 0 1 2.228-2.228Z" class="colorfff svgShape"></path><path fill="#2f3e46" d="M201.694 131.36h-12.771a.25.25 0 0 1 0-.5h12.771a.25.25 0 0 1 0 .5ZM201.694 134.678h-12.771a.25.25 0 0 1 0-.5h12.771a.25.25 0 0 1 0 .5ZM201.694 137.996h-12.771a.25.25 0 1 1 0-.5h12.771a.25.25 0 0 1 0 .5ZM201.694 141.313h-12.771a.25.25 0 0 1 0-.5h12.771a.25.25 0 0 1 0 .5ZM201.694 144.631h-12.771a.25.25 0 0 1 0-.5h12.771a.25.25 0 0 1 0 .5Z" class="color0a0909 svgShape"></path><path fill="#ffffff" d="M237.094 126.637h13.313a2.228 2.228 0 0 1 2.228 2.228v19.46a2.228 2.228 0 0 1-2.228 2.228h-13.313a2.228 2.228 0 0 1-2.227-2.227v-19.461a2.228 2.228 0 0 1 2.227-2.228Z" class="colorfff svgShape"></path><path fill="#2f3e46" d="M250.229 131.36h-12.77a.25.25 0 0 1 0-.5h12.77a.25.25 0 0 1 0 .5ZM250.229 134.678h-12.77a.25.25 0 0 1 0-.5h12.77a.25.25 0 0 1 0 .5ZM250.229 137.996h-12.77a.25.25 0 0 1 0-.5h12.77a.25.25 0 1 1 0 .5ZM250.229 141.313h-12.77a.25.25 0 0 1 0-.5h12.77a.25.25 0 0 1 0 .5ZM250.229 144.631h-12.77a.25.25 0 0 1 0-.5h12.77a.25.25 0 0 1 0 .5Z" class="color0a0909 svgShape"></path><path fill="#ffffff" d="M285.63 126.637h13.312a2.228 2.228 0 0 1 2.228 2.228v19.46a2.228 2.228 0 0 1-2.228 2.228H285.63a2.228 2.228 0 0 1-2.228-2.228v-19.46a2.228 2.228 0 0 1 2.228-2.228Z" class="colorfff svgShape"></path><path fill="#2f3e46" d="M298.764 131.36h-12.77a.25.25 0 0 1 0-.5h12.77a.25.25 0 0 1 0 .5ZM298.764 134.678h-12.77a.25.25 0 0 1 0-.5h12.77a.25.25 0 0 1 0 .5ZM298.764 137.996h-12.77a.25.25 0 0 1 0-.5h12.77a.25.25 0 0 1 0 .5ZM298.764 141.313h-12.77a.25.25 0 0 1 0-.5h12.77a.25.25 0 0 1 0 .5ZM298.764 144.631h-12.77a.25.25 0 0 1 0-.5h12.77a.25.25 0 0 1 0 .5Z" class="color0a0909 svgShape"></path><path fill="#ffffff" d="M334.164 126.637h13.313a2.228 2.228 0 0 1 2.228 2.228v19.46a2.228 2.228 0 0 1-2.228 2.228h-13.313a2.228 2.228 0 0 1-2.228-2.228v-19.46a2.228 2.228 0 0 1 2.228-2.228Z" class="colorfff svgShape"></path><path fill="#2f3e46" d="M347.299 131.36h-12.772a.25.25 0 0 1 0-.5H347.3a.25.25 0 0 1 0 .5ZM347.299 134.678h-12.772a.25.25 0 0 1 0-.5H347.3a.25.25 0 0 1 0 .5ZM347.299 137.996h-12.772a.25.25 0 0 1 0-.5H347.3a.25.25 0 0 1 0 .5ZM347.299 141.313h-12.772a.25.25 0 0 1 0-.5H347.3a.25.25 0 0 1 0 .5ZM347.299 144.631h-12.772a.25.25 0 0 1 0-.5H347.3a.25.25 0 0 1 0 .5Z" class="color0a0909 svgShape"></path><path fill="#ffffff" d="M91.49 180.229h13.313a2.228 2.228 0 0 1 2.228 2.227v19.46a2.228 2.228 0 0 1-2.228 2.228H91.49a2.228 2.228 0 0 1-2.228-2.227v-19.46a2.228 2.228 0 0 1 2.228-2.228Z" class="colorfff svgShape"></path><path fill="#2f3e46" d="M104.624 184.952h-12.77a.25.25 0 0 1 0-.5h12.77a.25.25 0 0 1 0 .5ZM104.624 188.27h-12.77a.25.25 0 0 1 0-.5h12.77a.25.25 0 1 1 0 .5ZM104.624 191.588h-12.77a.25.25 0 0 1 0-.5h12.77a.25.25 0 1 1 0 .5ZM104.624 194.905h-12.77a.25.25 0 1 1 0-.5h12.77a.25.25 0 0 1 0 .5ZM104.624 198.222h-12.77a.25.25 0 0 1 0-.5h12.77a.25.25 0 1 1 0 .5Z" class="color0a0909 svgShape"></path><path fill="#ffffff" d="M140.025 180.229h13.313a2.228 2.228 0 0 1 2.227 2.227v19.46a2.228 2.228 0 0 1-2.227 2.228h-13.313a2.228 2.228 0 0 1-2.228-2.227v-19.46a2.228 2.228 0 0 1 2.228-2.228Z" class="colorfff svgShape"></path><path fill="#2f3e46" d="M153.16 184.952h-12.771a.25.25 0 1 1 0-.5h12.77a.25.25 0 0 1 0 .5ZM153.16 188.27h-12.771a.25.25 0 0 1 0-.5h12.77a.25.25 0 0 1 0 .5ZM153.16 191.588h-12.771a.25.25 0 0 1 0-.5h12.77a.25.25 0 0 1 0 .5ZM153.16 194.905h-12.771a.25.25 0 0 1 0-.5h12.77a.25.25 0 0 1 0 .5ZM153.16 198.222h-12.771a.25.25 0 0 1 0-.5h12.77a.25.25 0 0 1 0 .5Z" class="color0a0909 svgShape"></path><path fill="#ffffff" d="M188.56 180.229h13.313a2.228 2.228 0 0 1 2.227 2.227v19.46a2.228 2.228 0 0 1-2.228 2.228H188.56a2.228 2.228 0 0 1-2.228-2.227v-19.46a2.228 2.228 0 0 1 2.228-2.228Z" class="colorfff svgShape"></path><path fill="#2f3e46" d="M201.694 184.952h-12.771a.25.25 0 1 1 0-.5h12.771a.25.25 0 0 1 0 .5ZM201.694 188.27h-12.771a.25.25 0 0 1 0-.5h12.771a.25.25 0 0 1 0 .5ZM201.694 191.588h-12.771a.25.25 0 0 1 0-.5h12.771a.25.25 0 0 1 0 .5ZM201.694 194.905h-12.771a.25.25 0 0 1 0-.5h12.771a.25.25 0 1 1 0 .5ZM201.694 198.222h-12.771a.25.25 0 0 1 0-.5h12.771a.25.25 0 0 1 0 .5Z" class="color0a0909 svgShape"></path><path fill="#ffffff" d="M237.094 180.229h13.313a2.228 2.228 0 0 1 2.228 2.227v19.46a2.228 2.228 0 0 1-2.228 2.228h-13.313a2.228 2.228 0 0 1-2.227-2.227v-19.46a2.228 2.228 0 0 1 2.227-2.228Z" class="colorfff svgShape"></path><path fill="#2f3e46" d="M250.229 184.952h-12.77a.25.25 0 0 1 0-.5h12.77a.25.25 0 1 1 0 .5ZM250.229 188.27h-12.77a.25.25 0 0 1 0-.5h12.77a.25.25 0 0 1 0 .5ZM250.229 191.588h-12.77a.25.25 0 0 1 0-.5h12.77a.25.25 0 0 1 0 .5ZM250.229 194.905h-12.77a.25.25 0 0 1 0-.5h12.77a.25.25 0 0 1 0 .5ZM250.229 198.222h-12.77a.25.25 0 0 1 0-.5h12.77a.25.25 0 0 1 0 .5Z" class="color0a0909 svgShape"></path><path fill="#ffffff" d="M285.63 180.229h13.312a2.228 2.228 0 0 1 2.228 2.227v19.46a2.228 2.228 0 0 1-2.228 2.228H285.63a2.228 2.228 0 0 1-2.228-2.227v-19.46a2.228 2.228 0 0 1 2.228-2.228Z" class="colorfff svgShape"></path><path fill="#2f3e46" d="M298.764 184.952h-12.77a.25.25 0 0 1 0-.5h12.77a.25.25 0 0 1 0 .5ZM298.764 188.27h-12.77a.25.25 0 0 1 0-.5h12.77a.25.25 0 0 1 0 .5ZM298.764 191.588h-12.77a.25.25 0 0 1 0-.5h12.77a.25.25 0 0 1 0 .5ZM298.764 194.905h-12.77a.25.25 0 0 1 0-.5h12.77a.25.25 0 0 1 0 .5ZM298.764 198.222h-12.77a.25.25 0 0 1 0-.5h12.77a.25.25 0 0 1 0 .5Z" class="color0a0909 svgShape"></path><path fill="#ffffff" d="M334.164 180.229h13.313a2.228 2.228 0 0 1 2.228 2.227v19.46a2.228 2.228 0 0 1-2.228 2.228h-13.313a2.228 2.228 0 0 1-2.228-2.227v-19.46a2.228 2.228 0 0 1 2.228-2.228Z" class="colorfff svgShape"></path><path fill="#2f3e46" d="M347.299 184.952h-12.772a.25.25 0 0 1 0-.5H347.3a.25.25 0 0 1 0 .5ZM347.299 188.27h-12.772a.25.25 0 0 1 0-.5H347.3a.25.25 0 0 1 0 .5ZM347.299 191.588h-12.772a.25.25 0 0 1 0-.5H347.3a.25.25 0 0 1 0 .5ZM347.299 194.905h-12.772a.25.25 0 0 1 0-.5H347.3a.25.25 0 0 1 0 .5ZM347.299 198.222h-12.772a.25.25 0 0 1 0-.5H347.3a.25.25 0 0 1 0 .5Z" class="color0a0909 svgShape"></path><g fill="#2f3e46" class="color000 svgShape"><path fill="#2f3e46" d="M335.757 312.446s-2.76-9.52-.01-13.532 4.845-6.7 4.048-12.734-.2-8.925 3.589-11.916 6.58-8.872 4.685-14.256 5.583-11.165 5.583-11.165-2.592 8.773-.598 12.262 3.589 10.168.598 13.359-6.979 10.726-5.284 16.578-.2 16.02-8.773 21.404Z" class="color0a0909 svgShape"></path><path fill="#2f3e46" d="M343.19 312.446s6.042-3.511 6.042-7.82.266-8.653 5.051-10.136 6.38-4.892 6.38-10.831 6.115-4.33 8.108-9.66c1.633-4.365 7.444-5.716 7.444-5.716s-4.918 3.108-4.253 10.368c.452 4.942-1.728 9.304-5.583 11.165s-2.127 10.311-4.12 13.596-7.444 4.939-7.444 8.1Z" class="color0a0909 svgShape"></path><path fill="#ffffff" d="M338.2 312.571a.122.122 0 0 1-.055-.013.125.125 0 0 1-.058-.167c.049-.1 4.874-10.056 4.978-19.65.102-9.432 2.25-13.382 5.808-19.927l.383-.703c2.362-4.352 1.907-7.744 1.468-11.023a19.794 19.794 0 0 1-.186-5.984.125.125 0 0 1 .143-.103.124.124 0 0 1 .103.142 19.59 19.59 0 0 0 .188 5.911c.444 3.32.905 6.752-1.497 11.176l-.382.704c-3.54 6.51-5.677 10.44-5.779 19.81-.104 9.651-4.954 19.657-5.002 19.757a.124.124 0 0 1-.113.07ZM349.838 312.037a.12.12 0 0 1-.082-.032.124.124 0 0 1-.012-.175c.068-.077 6.788-7.805 9.474-14.672 2.698-6.899 5.726-12.13 7.398-14.07 1.163-1.348 2.015-3.875 2.7-5.906.282-.84.55-1.633.802-2.236a.125.125 0 1 1 .23.098c-.248.593-.515 1.382-.796 2.218-.692 2.051-1.551 4.604-2.746 5.99-1.658 1.924-4.668 7.126-7.356 13.998-2.7 6.908-9.45 14.667-9.518 14.744a.123.123 0 0 1-.094.043Z" class="colorfff svgShape"></path><path fill="#2f3e46" d="M95.528 315.83s-1.619-5.583-.005-7.936 2.84-3.93 2.373-7.468-.117-5.234 2.104-6.988 3.859-5.203 2.748-8.36 3.274-6.548 3.274-6.548-1.52 5.145-.35 7.191 2.104 5.963.35 7.834-4.092 6.29-3.098 9.722a11.76 11.76 0 0 1-5.145 12.552Z" class="color0a0909 svgShape"></path><path fill="#2f3e46" d="M99.887 315.83s3.543-2.06 3.543-4.587.156-5.074 2.962-5.944 3.742-2.869 3.742-6.351 3.586-2.539 4.755-5.666c.957-2.56 4.365-3.351 4.365-3.351a6.45 6.45 0 0 0-2.494 6.08 6.387 6.387 0 0 1-3.274 6.547c-2.26 1.092-1.247 6.047-2.417 7.974s-4.365 2.896-4.365 4.75Z" class="color0a0909 svgShape"></path><path fill="#ffffff" d="M96.96 315.955a.121.121 0 0 1-.055-.013.124.124 0 0 1-.057-.167c.028-.059 2.853-5.889 2.914-11.5.06-5.547 1.322-7.867 3.413-11.713l.224-.411a9.342 9.342 0 0 0 .855-6.434 11.8 11.8 0 0 1-.108-3.523.126.126 0 0 1 .142-.104.124.124 0 0 1 .104.143 11.431 11.431 0 0 0 .11 3.451 9.547 9.547 0 0 1-.885 6.586l-.222.411c-2.074 3.812-3.324 6.113-3.383 11.595-.062 5.67-2.911 11.55-2.94 11.608a.124.124 0 0 1-.112.07ZM103.785 315.641a.12.12 0 0 1-.082-.031.124.124 0 0 1-.012-.176c.04-.046 3.976-4.57 5.547-8.589a33.644 33.644 0 0 1 4.348-8.266 11.46 11.46 0 0 0 1.572-3.445c.166-.494.323-.96.473-1.316a.125.125 0 1 1 .23.098c-.145.346-.301.808-.465 1.297a11.647 11.647 0 0 1-1.62 3.53 33.419 33.419 0 0 0-4.305 8.194c-1.587 4.059-5.552 8.616-5.592 8.661a.123.123 0 0 1-.094.043Z" class="colorfff svgShape"></path></g><g fill="#2f3e46" class="color000 svgShape"><path fill="#ffffff" d="M386.723 130.268a.25.25 0 0 1-.228-.353c.136-.301 3.304-7.186 7.622-7.186.125 0 .251.006.38.018a3.592 3.592 0 0 1 2.91 1.483 3.509 3.509 0 0 1 .397 2.358c2.232-2.197 9.811-9.195 15.778-9.195q.146 0 .293.006a3.38 3.38 0 0 1 3.077 1.589c1.304 2.357-.523 6.67-1.527 8.695 1.807-1.427 5.709-4.292 7.986-4.147a1.471 1.471 0 0 1 1.307.731c.804 1.484-1.026 4.735-1.104 4.872a.25.25 0 1 1-.435-.248c.495-.87 1.658-3.356 1.1-4.386a.99.99 0 0 0-.897-.47 2.084 2.084 0 0 0-.136-.003c-2.796 0-8.396 4.764-8.454 4.813a.252.252 0 0 1-.321.002.25.25 0 0 1-.058-.316c.037-.065 3.672-6.462 2.102-9.301a2.917 2.917 0 0 0-2.66-1.331 6.256 6.256 0 0 0-.27-.006c-6.715 0-15.959 9.581-16.053 9.679a.25.25 0 0 1-.415-.26 3.632 3.632 0 0 0-.135-2.82 3.135 3.135 0 0 0-2.533-1.247c-4.154-.392-7.466 6.803-7.499 6.877a.25.25 0 0 1-.227.146ZM145.116 294.506a.247.247 0 0 1-.103-.022.25.25 0 0 1-.124-.331c.215-.478 5.24-11.4 12.048-11.4.197 0 .394.008.593.027 2.189.205 3.716.98 4.541 2.3a5.718 5.718 0 0 1 .533 4.129c3.117-3.11 16.075-15.378 25.916-14.977 2.329.093 3.942.92 4.794 2.463 2.194 3.967-1.272 11.506-2.752 14.374 2.503-2.02 9.105-7.034 12.956-7.034.083 0 .164.003.244.007a2.207 2.207 0 0 1 1.966 1.092c1.248 2.298-1.64 7.424-1.763 7.642a.25.25 0 0 1-.436-.248c.03-.05 2.875-5.1 1.76-7.155a1.719 1.719 0 0 0-1.557-.831 3.28 3.28 0 0 0-.22-.007c-4.529 0-13.524 7.653-13.616 7.731a.25.25 0 0 1-.38-.313c.06-.104 5.91-10.404 3.361-15.016-.763-1.379-2.235-2.12-4.377-2.205a10.793 10.793 0 0 0-.438-.009c-10.801 0-25.622 15.362-25.772 15.519a.25.25 0 0 1-.415-.261c.01-.027.99-2.69-.229-4.638-.739-1.18-2.14-1.876-4.163-2.065a5.82 5.82 0 0 0-.535-.025c-6.5 0-11.552 10.993-11.604 11.107a.25.25 0 0 1-.228.146Z" class="colorfff svgShape"></path></g><g fill="#2f3e46" class="color000 svgShape"><path fill="#ffffff" fill-rule="evenodd" d="M399.622 168.507s16.99 3.133 21.793 1.734c0 0-5.848 17.213.644 27.282 0 0-16.404-3.938-21.281-2.14 0 0-4.74-10.756-1.156-26.876Z" class="colorfff svgShape"></path><path fill="#2f3e46" fill-rule="evenodd" d="M385.068 230.977s9.687-2.62 11.852-4.557c0 0 1.253 10.484 7.179 14.13 0 0-9.581 2.052-11.685 4.217 0 0-5.18-4.446-7.346-13.79Z" class="color0a0909 svgShape"></path><path fill="#ffffff" fill-rule="evenodd" d="M223.933 276.09s12.85-3.477 15.723-6.047c0 0 1.663 13.91 9.524 18.747 0 0-12.71 2.721-15.502 5.594 0 0-6.873-5.899-9.745-18.295ZM120.999 251.606s9 1.678 11.548.942c0 0-3.118 9.116.312 14.46 0 0-8.69-2.105-11.276-1.157 0 0-2.5-5.706-.584-14.245Z" class="colorfff svgShape"></path><path fill="#2f3e46" fill-rule="evenodd" d="M185.823 247.811s8.886-4.14 10.642-5.958c0 0 2.996 6.622 9.328 7.562 0 0-8.882 3.737-10.54 5.692a18.568 18.568 0 0 1-9.43-7.296Z" class="color0a0909 svgShape"></path></g><g fill="#2f3e46" class="color000 svgShape"><ellipse cx="307.293" cy="314.185" fill="#2f3e46" rx="53.036" ry="2.369" transform="rotate(-3.532 307.293 314.185)" class="color090909 svgShape"></ellipse><path fill="#ffffff" fill-rule="evenodd" d="M287.135 198.498c.884 11.198 1.106 29.512 3.434 55.469 2.327 25.957 3.043 38.756 3.043 38.756l13.196-.649.505-33.569 6.987 32.478 14.254-1.151a284.717 284.717 0 0 1-4.157-49.052c.308-25.133 2.405-38.911-2.421-55.872Z" class="colorfff svgShape"></path><path fill="#fb7e60" fill-rule="evenodd" d="M268.028 149.421s-.622-8.939-1.151-14.892c-.53-5.953-.967-8.919-.967-8.919a55.445 55.445 0 0 1-14.486-14.831c-5.652-8.994-12.368-18.996-18.004-21.926-5.635-2.93-20.512-7.946-18.032-5.748 2.479 2.198 7.592 3.377 7.276 4.841-.316 1.463-1.554 6.624.094 7.05 1.648.427 5.91-.906 6.779.754a242.21 242.21 0 0 0 13.636 24.08c9.18 14.564 15.64 22.394 24.855 29.591Z" class="colorfb7e60 svgShape"></path><path fill="#84a98c" fill-rule="evenodd" d="M318.432 163.044c.796 5.922 7.004 20.981 7.004 20.981l-10.008 3.711s2.208-30.614 3.004-24.692ZM294.072 136.939c-6.788.736-28.267-12.096-28.267-12.096s.832 5.991 1.314 12.971c.482 6.979.95 12.437.95 12.437s15.992 12.157 19.62 14.024c0 0 13.172-28.072 6.383-27.336Z" class="color1636bd svgShape"></path><path fill="#2f3e46" fill-rule="evenodd" d="M287.275 113.098c-2.814 2.261-6.386 8.792-3.425 13.83 0 0-1.49-5.396 1.052-8.75 0 0-1.952 9.09 4.667 10.853 0 0 9.314 2.824 13.536 5.518 4.22 2.694 13.589 8.522 12.463 25.215 0 0 11.59-9.38 9.584-21.487-2.006-12.106-17.984-11.745-17.984-11.745s.924-6.718-2.3-11.065-10.873-7.768-17.593-2.369Z" class="color090909 svgShape"></path><path fill="#354f52" fill-rule="evenodd" d="m286.183 226.485 34.544-4.141 2.698 21.594-35.394 4.905Z" class="color464d7b svgShape"></path><path fill="#2f3e46" fill-rule="evenodd" d="m287.115 198.499.083.789s5.16 1.141 13.657-2.11 15.862-8.947 21.814-9.547c0 0-.306-1.461-.58-2.363 0 0-4.85 1.579-10.727 4.063s-24.247 9.168-24.247 9.168Z" class="color090909 svgShape"></path><path fill="#fb7e60" fill-rule="evenodd" d="M289.14 114.808s-2.644 14.142 2.04 16.054c4.683 1.913 2.534 9.621 2.534 9.621s5.4-6.143 9.422-6.028c0 0-4.408-4.404-4.132-7.36a4.41 4.41 0 0 0 3.746-3.825c.33-3.362-4.194-4.575-5.4-1.739 0 0-5.013 0-8.21-6.723ZM299.945 173.719s6.705-4.979 17-1.926c0 0-1.691 18.883-2.576 29.182-.886 10.3-1.228 18.602-1.934 23.362s-2.58 10.407-2.653 8.569c-.073-1.839.6-6.269-.065-4.959-.667 1.309-1.383 6.609-2.101 5.417-.718-1.193.983-7.647.254-6.551-.73 1.095-2.46 8.295-2.945 6.834-.484-1.462 1.02-5.437.658-6.429s-1.778 4.657-3.096 4.947c-1.318.289 1.878-7.272-1.425-7.271 0 0-.52-1.433 1.774-4.454 2.294-3.022 1.326-7.98.017-20.789-1.308-12.809-2.908-25.932-2.908-25.932Z" class="colorfb7e60 svgShape"></path><path fill="#2f3e46" fill-rule="evenodd" d="M291.155 130.869a5.662 5.662 0 0 0 3.97-.631l-1.923 2.306a4.477 4.477 0 0 0-.768-.867 4.826 4.826 0 0 0-1.28-.808Z" class="color090909 svgShape"></path><path fill="#84a98c" fill-rule="evenodd" d="M297.154 135.956c4.305-1.94 7.498-5.233 16.456 5.907s3.86 30.104 3.86 30.104a25.608 25.608 0 0 0-8.476-1.024c-4.206.328-9.021 2.869-9.021 2.869l2.288 20.077s-13.27 6.693-20.788 4.03a113.722 113.722 0 0 0 1.892-28.321c-1.093-17.181 6.809-30.497 13.789-33.642Z" class="color1636bd svgShape"></path><path fill="#fb7e60" fill-rule="evenodd" d="m315.368 290.899 10.69-.857.953 9.491-9.867 1.039ZM295.098 292.655l10.043-.502.202 9.407-9.861.016Z" class="colorfb7e60 svgShape"></path><path fill="#52796f" fill-rule="evenodd" d="m317.062 300.577 9.95-1.057 1.94 15.203-19.808.661a9.161 9.161 0 0 1 4.33-4.499c4.959-2.384 3.588-10.308 3.588-10.308ZM295.456 301.569l9.88-.017.58 13.847-21.06 1.033s1.82-4.496 5.526-5.174c6.438-1.177 5.074-9.69 5.074-9.69Z" class="color6696f9 svgShape"></path><path fill="#2f3e46" fill-rule="evenodd" d="m316.204 180.346.74-8.52.663.04s.973-6.301 1.1-7.342c0 0 1.343 4.964 1.562 5.61 0 0-1.184 2.227-2.254 4.617a36.352 36.352 0 0 0-1.811 5.595ZM283.497 161.584c.154-1.41 1.147-6.354 1.147-6.354l-4.646 3.899Z" class="color090909 svgShape"></path><path fill="#2f3e46" fill-rule="evenodd" d="M317.602 171.869a20.792 20.792 0 0 0-9.841-.872 26.742 26.742 0 0 0-7.893 2.879s2.804-1.671 8.442-1.979a22.526 22.526 0 0 1 9.062 1.105s1.632-.737.23-1.133ZM265.792 124.851a1.311 1.311 0 0 0-.23.525l.175.136s.179 4.601.07 11.34a56.06 56.06 0 0 0 .933 11.554l1.263.999s-.561-7.531-.988-13.907c-.426-6.376-1.012-10.973-1.223-10.647ZM315.355 290.919l10.708-.879.067.751ZM295.07 292.676l10.08-.527.007.82ZM307.293 258.548c-.762-3.824-2.15-10.458-2.15-10.458a12.436 12.436 0 0 0 2.143 15.068Z" class="color090909 svgShape"></path><path fill="#ffffff" fill-rule="evenodd" d="M314.62 310.197c2.386 1.161 4.932-1.798 5.489-6.684.557-4.885-1.188-6.184-3.594-6.272a21.248 21.248 0 0 1 .544 7.447 9.167 9.167 0 0 1-2.44 5.509ZM291.25 311.082c2.163 1.97 6.24-1.293 6.744-5.649.502-4.356-.245-7.174-2.665-7.87 0 0 .34 6.939-.455 9.76a5.993 5.993 0 0 1-3.623 3.759ZM309.144 315.39s.08-.203.149-.332l19.587-.873.075.538ZM284.839 316.438l21.072-1.047-.028-.59-20.946 1.441s-.051.098-.098.196Z" class="colorfff svgShape"></path><path fill="#2f3e46" d="M313.555 288.064a.25.25 0 0 1-.029-.498l9.978-1.129a.241.241 0 0 1 .276.22.25.25 0 0 1-.22.276l-9.977 1.13ZM324.565 286.755a.25.25 0 0 1-.036-.497l3.298-.483a.25.25 0 0 1 .073.494l-3.298.484a.23.23 0 0 1-.037.002ZM293.322 289.652a.25.25 0 0 1-.012-.5l13.435-.704a.25.25 0 1 1 .026.5l-13.436.704ZM314.872 304.734a1.044 1.044 0 0 1-.559-.166.727.727 0 0 1-.395-.676c.032-.54.746-1.138 1.485-1.617a3.358 3.358 0 0 1-2.549-.32 1.139 1.139 0 0 1-.279-1.166 1.218 1.218 0 0 1 .785-.968c1.202-.41 3.243 1.115 3.779 1.539a.231.231 0 0 1 .101.012l3.922-.446a.245.245 0 0 1 .276.22.25.25 0 0 1-.22.277l-3.888.442c-.248.604-1.083 2.464-2.115 2.811a1.088 1.088 0 0 1-.343.058Zm1.8-2.616c-1.049.553-2.228 1.345-2.254 1.803-.003.036-.007.118.161.223a.523.523 0 0 0 .476.058c.617-.207 1.246-1.295 1.617-2.084Zm-2.852-1.87a.936.936 0 0 0-.299.046.742.742 0 0 0-.458.606c-.107.468.073.634.131.688.514.477 2.159.248 3.341-.059a5.997 5.997 0 0 0-2.715-1.28ZM320.404 305.902a.252.252 0 0 1-.06-.007 33.232 33.232 0 0 0-3.4-.47.25.25 0 0 1-.227-.271.234.234 0 0 1 .271-.227 33.259 33.259 0 0 1 3.476.482.25.25 0 0 1-.06.493ZM319.873 308.035a.249.249 0 0 1-.13-.036 17.544 17.544 0 0 0-3.196-1.19.25.25 0 0 1-.176-.306.253.253 0 0 1 .307-.176 17.704 17.704 0 0 1 3.325 1.244.25.25 0 0 1-.13.464ZM318.701 309.932a.253.253 0 0 1-.167-.063 22.739 22.739 0 0 0-2.534-1.694.25.25 0 0 1-.09-.341.247.247 0 0 1 .342-.09 22.682 22.682 0 0 1 2.616 1.752.25.25 0 0 1-.167.436ZM292.192 305.6h-.007a1.155 1.155 0 0 1-.932-.471.85.85 0 0 1-.162-.896c.293-.684 1.616-1.09 2.731-1.316-1.05-.23-2.26-.62-2.483-1.212a.696.696 0 0 1 .182-.743 1.09 1.09 0 0 1 .848-.374c1.2 0 2.813 1.657 3.192 2.066l3.506-.108h.008a.25.25 0 0 1 .008.5l-3.507.107c-.407.499-2.078 2.446-3.384 2.446Zm2.638-2.347c-1.328.193-3.039.616-3.28 1.176-.031.074-.055.194.1.394a.648.648 0 0 0 .537.276h.005c.792 0 1.943-1.079 2.638-1.846Zm-2.46-2.165a.596.596 0 0 0-.476.206c-.123.138-.097.209-.087.235.166.44 1.691.85 2.996 1.064a4.826 4.826 0 0 0-2.434-1.505ZM298.17 308.057a.252.252 0 0 1-.096-.018 29.395 29.395 0 0 0-3.183-.862.249.249 0 0 1-.192-.297.254.254 0 0 1 .297-.19 29.103 29.103 0 0 1 3.27.886.25.25 0 0 1-.096.481ZM297.354 310.08a.254.254 0 0 1-.141-.043 29.802 29.802 0 0 0-2.93-1.366.25.25 0 1 1 .192-.462 29.292 29.292 0 0 1 3.021 1.416.25.25 0 0 1-.142.456ZM295.642 311.478a.252.252 0 0 1-.148-.048 114.387 114.387 0 0 1-2.17-1.678.25.25 0 0 1 .31-.393c.016.013 1.594 1.259 2.155 1.667a.25.25 0 0 1-.147.452ZM299.238 173.813a.25.25 0 0 1-.246-.205c-.842-4.613-.78-21.968-.776-22.704a.25.25 0 0 1 .25-.25.25.25 0 0 1 .25.252c-.001.18-.066 18.045.768 22.612a.25.25 0 0 1-.2.291.235.235 0 0 1-.046.004ZM285.074 154.619a.245.245 0 0 1-.096-.02.25.25 0 0 1-.134-.327c.04-.098 4.13-9.828 8.77-16.128a.25.25 0 0 1 .402.297c-4.605 6.252-8.67 15.927-8.711 16.024a.25.25 0 0 1-.23.154Z" class="color090909 svgShape"></path><path fill="#ffffff" fill-rule="evenodd" d="M294.116 137.925a19.601 19.601 0 0 1 4.443-2.588 26.235 26.235 0 0 1 4.123-1.386l-.508-.576s-.91.268-3.861 1.505a14.617 14.617 0 0 0-4.138 2.369Z" class="colorfff svgShape"></path><path fill="#2f3e46" d="M291.592 128.213a1.55 1.55 0 0 1-.148-.006.25.25 0 0 1 .05-.498 1.794 1.794 0 0 0 1.59-.763.25.25 0 1 1 .415.277 2.274 2.274 0 0 1-1.907.99ZM299.168 125.144a.25.25 0 0 1-.235-.166 3.518 3.518 0 0 1 .085-2.562 2.282 2.282 0 0 1 1.582-1.107.243.243 0 0 1 .3.187.25.25 0 0 1-.187.3 1.809 1.809 0 0 0-1.256.858 3.068 3.068 0 0 0-.054 2.156.25.25 0 0 1-.151.32.257.257 0 0 1-.084.014Z" class="color090909 svgShape"></path><path fill="#2f3e46" d="M301.229 124.08a.247.247 0 0 1-.17-.067 3.125 3.125 0 0 0-1.819-.783.25.25 0 0 1 .001-.5h.001a3.585 3.585 0 0 1 2.157.918.25.25 0 0 1-.17.433Z" class="color090909 svgShape"></path></g><g fill="#2f3e46" class="color000 svgShape"><ellipse cx="78.114" cy="315.902" fill="#2f3e46" rx="53.036" ry="2.369" class="color090909 svgShape"></ellipse><path fill="#2f3e46" fill-rule="evenodd" d="M62.554 130.751a19.308 19.308 0 0 0-5.721-5.457c-2.733-1.819-4.261-5.537-1.3-7.836 0 0-1.152-2.68.573-3.485 0 0-2.955-5.063.81-7.539 3.766-2.475 5.977 1.339 5.977 1.339a3.808 3.808 0 0 1 4.02-1.08c2.255.91.373 4.071.373 4.071a3.826 3.826 0 0 1 1.352 4.576c-1.135 2.93-.29 9.298-.29 9.298l-1.783 6.785s-3 .985-4.011-.672Z" class="color090909 svgShape"></path><path fill="#fb7e60" fill-rule="evenodd" d="M67.614 113.623s4.638 5.657 5.046 8.499c.407 2.843-2.187 2.612-2.113 6.547a12.158 12.158 0 0 0 3.023 7.106s-7.316 7.035-13.38-.675a39.943 39.943 0 0 0 2.384-4.31l3.028-1.085-.548-2.901a2.775 2.775 0 0 1-3.23-1.691c-1.096-2.305.75-4.085 2.368-3.732a3.395 3.395 0 0 1 2.245 1.572l.836-.76a9.594 9.594 0 0 1-1.532-3.266s2.188-1.772.797-3.397c0 0 1.584.184 1.076-1.907Z" class="colorfb7e60 svgShape"></path><path fill="#354f52" fill-rule="evenodd" d="M83.777 195.934c.804 6.574-.218 28.621-1.55 53.315-1.333 24.693-2.767 40.34-2.767 40.34l-12.708-.213s-.614-20.117-1.332-32.89c-.717-12.772-1.434-22.245-1.434-22.245s-2.026 15.565-4.536 30.712-3.285 26.337-3.285 26.337l-13.22.299s.706-9.555.005-35.786c-.702-26.232-.141-57.087-.141-57.087s40.164-9.356 40.968-2.782Z" class="color464d7b svgShape"></path><path fill="#fb7e60" fill-rule="evenodd" d="M88.678 122.453s8.35-10.774 15.434-21.293c7.085-10.52 22.622-19.248 23.954-19.345 1.33-.097.38.851-.992 2.233s-3.961 3.687-3.857 4.368.984 1.404.755 2.49.795 2.46-.154 3.22a13.206 13.206 0 0 1-5.462 2.781c-2.34.409-5.1 6.338-7.56 14.331a161.5 161.5 0 0 1-10.33 24.94 34.151 34.151 0 0 1-8.437 10.82s-3.927-12.845-3.351-24.545Z" class="colorfb7e60 svgShape"></path><path fill="#52796f" fill-rule="evenodd" d="M60.227 134.982a26.82 26.82 0 0 0-17.754 20.341c-3.28 16.302-1.762 44.259-1.762 44.259a78.824 78.824 0 0 1 17.666-.49c10.865.745 24.614-.694 29.226-5.816 0 0-7.965-27.301-6.057-32.452 1.907-5.151 11.002-12.249 11.002-12.249s-1.71-6.139-2.932-13.586a66.479 66.479 0 0 1-.89-13.203s-8.24 9.29-15.102 13.655a13.075 13.075 0 0 1-13.397-.459Z" class="colorfeb825 svgShape"></path><path fill="#fb7e60" fill-rule="evenodd" d="M81.73 168.279s12.604-.331 18.27-1.218 16.695-.825 16.33.468c-.362 1.293-3.47.9-6.084 1.559-2.615.659-2.41 1.497-2.253 2.258.158.761.873 3.728-2.41 3.26-3.282-.468-4.824-1.751-6.652-.853-1.827.898-10.805 5.284-14.674 6.895 0 0-1.938-8.014-2.526-12.369ZM78.475 289.568l-10.393-.165.842 12.297 9.212-.091ZM44.583 291.538l10.147-.222-.928 11.058-9.032.67Z" class="colorfb7e60 svgShape"></path><path fill="#84a98c" fill-rule="evenodd" d="m68.908 301.703 9.259-.11s-.391 4.944 1.34 8.513c1.877 3.87 9.658 4.37 10.017 8.196l-20.274.209ZM44.729 303.004l9.067-.627s-.128 8.384.972 9.883 3.99 3.01 4.33 5.21l-13.553.389s-.124-2.881-.405-5.405c-.216-1.946-.411-9.45-.411-9.45Z" class="color1636bd svgShape"></path><path fill="#2f3e46" fill-rule="evenodd" d="m68.054 289.406 10.459.16-10.354.843ZM44.555 291.54l10.167-.224-10.131 1.389ZM64.005 234.116c-.294-5.882-1.365-16.582-1.365-16.582s-11.985 7.627.826 20.568ZM65.254 199.27a77.096 77.096 0 0 0 18.64-1.646l-.123-1.663s-1.155 1.008-8.413 2.259c-7.26 1.25-10.104 1.05-10.104 1.05Z" class="color090909 svgShape"></path><path fill="#ffffff" fill-rule="evenodd" d="M82.805 313.064c-1.47 1.123-4.691.376-6.634-3.88s-1.547-10.232 2.047-9.97c0 0-.36 6.559.846 9.489a8.445 8.445 0 0 0 3.74 4.361ZM89.522 318.302a2.449 2.449 0 0 0-.05-.325l-20.23-.037.014.58ZM56.584 314.025c-.72.684-3.483.71-4.36-3.975s-1.431-9.83 1.779-10.021c0 0-.132 6.506.175 9.412a7.27 7.27 0 0 0 2.406 4.584ZM45.547 317.856l13.573-.355-.073-.281-13.523.097ZM60.536 134.507l-.29.482a12.288 12.288 0 0 0 6.659 2.163 10.625 10.625 0 0 0 6.619-1.642l-.647-.655a12.972 12.972 0 0 1-6.461 1.414 15.71 15.71 0 0 1-5.88-1.762Z" class="colorfff svgShape"></path><path fill="#2f3e46" fill-rule="evenodd" d="m88.73 121.799.276.225-.112.151a71.362 71.362 0 0 0 1.742 13.455c1.693 7.594 2.25 10.636 2.25 10.636l.36-.329a8.234 8.234 0 0 1-.702 2.613s-1.245-4.138-2.786-12.318a59.854 59.854 0 0 1-1.028-14.433ZM66.557 123.047l.866-.758.219.209-.914.795ZM71.319 125.573a20.524 20.524 0 0 1-2.688 2.993l1.928.364a4.577 4.577 0 0 1 .08-1.343 10.361 10.361 0 0 1 .68-2.014Z" class="color090909 svgShape"></path><path fill="#2f3e46" d="M70.13 122.03a.25.25 0 0 1-.067-.49c.766-.215.863-.698.866-.718a.252.252 0 0 1 .287-.203.247.247 0 0 1 .207.281 1.529 1.529 0 0 1-1.225 1.121.228.228 0 0 1-.067.01ZM65.877 124.88a.249.249 0 0 1-.216-.126c-.441-.76-.93-1.17-1.456-1.217a1.9 1.9 0 0 0-1.395.65.247.247 0 0 1-.353.026.25.25 0 0 1-.026-.353 2.381 2.381 0 0 1 1.82-.821 2.523 2.523 0 0 1 1.842 1.465.248.248 0 0 1-.091.341.241.241 0 0 1-.125.034Z" class="color090909 svgShape"></path><path fill="#2f3e46" d="M64.258 125.811a.25.25 0 0 1-.234-.16 2.966 2.966 0 0 1 .108-2.42.25.25 0 0 1 .416.277 2.498 2.498 0 0 0-.057 1.963.25.25 0 0 1-.143.324.24.24 0 0 1-.09.016ZM66.635 286.658a.25.25 0 0 1-.014-.5l13.11-.697h.014a.25.25 0 0 1 .014.5l-13.11.697ZM43.118 288.319a.25.25 0 0 1-.023-.5l6.598-.62c-.278-36.903 7.961-57.536 8.044-57.741a.25.25 0 1 1 .463.189c-.083.204-8.318 20.84-8.005 57.778a.25.25 0 0 1-.226.251l-6.827.642ZM51.36 287.593a.25.25 0 0 1-.006-.5l5.149-.118a.237.237 0 0 1 .256.244.25.25 0 0 1-.244.256l-5.15.118ZM81.41 305.976c-1.262 0-2.875-2.021-3.264-2.534l-4.966.68a.25.25 0 0 1-.069-.495l5.001-.685c.325-.62 1.66-2.998 3.022-3.152a1.265 1.265 0 0 1 1.158.52.874.874 0 0 1 .192.849c-.257.83-1.822 1.539-2.944 1.95 1.057.15 2.483.476 2.915 1.156a.884.884 0 0 1 .064.838 1.223 1.223 0 0 1-.97.864 1.083 1.083 0 0 1-.139.01Zm-2.555-2.447c.692.83 1.898 2.041 2.631 1.942.243-.03.43-.212.57-.556a.383.383 0 0 0-.024-.382c-.348-.551-1.96-.882-3.177-1.004Zm2.418-3.247a.807.807 0 0 0-.083.004c-.874.1-1.922 1.632-2.461 2.573 1.315-.423 3.073-1.187 3.277-1.848a.37.37 0 0 0-.099-.38.82.82 0 0 0-.634-.35ZM75.473 309.655a.25.25 0 0 1-.132-.463 14.157 14.157 0 0 1 3.419-1.607.25.25 0 0 1 .068.496 13.277 13.277 0 0 0-3.224 1.537.25.25 0 0 1-.131.037ZM76.642 311.921a.25.25 0 0 1-.114-.472c.057-.033.207-.15.416-.31a13.265 13.265 0 0 1 2.554-1.673.25.25 0 1 1 .176.47 13.22 13.22 0 0 0-2.426 1.6 4.379 4.379 0 0 1-.497.36.242.242 0 0 1-.11.025ZM78.743 313.663a.249.249 0 0 1-.124-.034.251.251 0 0 1-.094-.34 9.645 9.645 0 0 1 1.873-2.386.25.25 0 0 1 .3.4 9.333 9.333 0 0 0-1.737 2.234.251.251 0 0 1-.218.126ZM55.336 307.096a.852.852 0 0 1-.442-.125c-.786-.47-1.068-2.221-1.147-2.883l-4.42.522a.25.25 0 0 1-.058-.496l4.646-.55c.413-.302 2.395-1.675 3.54-1.282a1.112 1.112 0 0 1 .712.823.973.973 0 0 1-.212 1.014c-.535.52-1.82.408-2.77.233.6.53 1.256 1.26 1.196 1.882a.947.947 0 0 1-.661.78.968.968 0 0 1-.384.082Zm-1.063-2.84c.13.88.43 2.018.877 2.287a.38.38 0 0 0 .372.011c.34-.145.356-.313.362-.368.049-.512-.871-1.379-1.61-1.93Zm.31-.545c1.074.266 2.592.47 3.024.05.074-.073.163-.207.078-.527a.62.62 0 0 0-.395-.48c-.666-.232-1.938.456-2.707.957ZM50.756 310.627a.25.25 0 0 1-.04-.498l3.56-.566a.25.25 0 1 1 .078.494l-3.559.567a.27.27 0 0 1-.04.003ZM51.798 313.048a.25.25 0 0 1-.107-.476l2.915-1.368a.254.254 0 0 1 .333.12.25.25 0 0 1-.12.333l-2.915 1.368a.255.255 0 0 1-.106.023ZM53.523 314.482a.25.25 0 0 1-.168-.435l1.874-1.709a.25.25 0 0 1 .337.37l-1.875 1.709a.247.247 0 0 1-.168.065Z" class="color090909 svgShape"></path><path fill="#2f3e46" d="M74.574 285.836h-.004a.125.125 0 0 1-.12-.13l2.559-86.956a.125.125 0 0 1 .125-.121h.004a.125.125 0 0 1 .12.128L74.7 285.714a.125.125 0 0 1-.125.122Z" class="color090909 svgShape"></path></g></svg></g></svg>