<svg id="SvgjsSvg2642" width="360" height="360" xmlns="http://www.w3.org/2000/svg" version="1.1" xmlns:xlink="http://www.w3.org/1999/xlink" xmlns:svgjs="http://svgjs.com/svgjs"><defs id="SvgjsDefs2643"></defs><g id="SvgjsG2644"><svg xmlns="http://www.w3.org/2000/svg" viewBox="0 0 500 350" width="700" height="360"><defs><clipPath id="a"><path fill="#52796f" d="M75.727 148.474h143.719v10.382H75.727z" transform="rotate(45 147.587 153.665)" class="colorfeb91e svgShape"></path></clipPath></defs><g data-name="man wearing blue shirt" fill="#2f3e46" class="color000 svgShape"><path fill="#354f52" d="M165.786 174.741a460.64 460.64 0 0 0 4.705 58.404c3.33 22.285 8.393 48.455 8.393 48.455l20.866-2.026v-23.5l4.205 27.589 19.005-1.843s-3.974-56.76-4.7-72.432 1.419-38.815 1.419-38.815-36.643-1.522-53.893 4.168Z" class="color464d7b svgShape"></path><path fill="#2f3e46" d="M170.756 84.21a13.565 13.565 0 0 1-6.658-2.458c-2.812-2.21-2.531-4.62.362-4.902a6.645 6.645 0 0 0 4.38-2.17s-1.407.201-3.978-1.285-1.326-2.37.401-2.33a17.21 17.21 0 0 0 3.335-.282 13.232 13.232 0 0 1-1.326-2.732c-.522-1.527 3.375-.402 5.545 0s6.428-3.295 9.402-3.214 3.857 3.656 3.857 3.656a2.59 2.59 0 0 0 .723-2.853 2.598 2.598 0 0 1 .402 3.295s2.009.361 2.33-1.326a2.307 2.307 0 0 1-1.607 2.37 6.484 6.484 0 0 1 4.34 6.188c.16 4.982-1.158 12.451-3.532 13.86s-17.976-5.817-17.976-5.817Z" class="color0a0909 svgShape"></path><path fill="#52796f" d="M176.607 101.68c-5.786 1.286-17.143 5.572-20.036 8.036s-12.857 29.464-9.107 43.607 15.857 16.056 15.857 16.056 1.5 5.887 2.465 5.362 12.428-3.203 28.821-3.525 27 .398 28.179-1.837.75-6.715.75-6.715 17.893-8.055 18.75-17.698-12.408-39.964-24.418-42.643-41.261-.643-41.261-.643Z" class="color6596fa svgShape"></path><path fill="#2f3e46" d="M192.772 172.323a.25.25 0 0 1-.248-.227l-5.813-64.809a.25.25 0 0 1 .498-.044l5.812 64.808a.25.25 0 0 1-.226.271ZM165.786 174.991a.25.25 0 0 1-.25-.238l-2.25-48.435a.25.25 0 0 1 .238-.261.243.243 0 0 1 .261.238l2.25 48.434a.25.25 0 0 1-.238.262Z" class="color0a0909 svgShape"></path><path fill="#fc7f61" d="M190.149 92.238c-3.08-4.017-2.386-6.67-2.386-6.67 2.09-1.687 3.616-6.307 1.005-7.392a2.924 2.924 0 0 0-3.821 1.423 7.587 7.587 0 0 0-14.13 5.01l-.004.002a17.532 17.532 0 0 0 3.129 8.592 4.778 4.778 0 0 0 4.185 1.655l-.007.015.224 3.794a11.502 11.502 0 0 0 4.839 5.063c3.496 1.888 3.777 3.535 3.777 3.535a68.09 68.09 0 0 1 2.611-8.719c1.608-4.138.578-6.308.578-6.308Z" class="colorfc7f61 svgShape"></path><path fill="#2f3e46" d="M219.547 172.323a.25.25 0 0 1-.247-.215l-8.2-57.857a.25.25 0 0 1 .496-.07l8.199 57.857a.25.25 0 0 1-.212.283.292.292 0 0 1-.036.002ZM170.687 82.756s7.313-.361 11.25-4.138a9.325 9.325 0 0 1-4.5 3.536s1.889.08 5.183-3.094c0 0-.16 2.09 2.451 3.415 0 0-1.053-3.318 1.603-4.431s-8.754-4.69-8.754-4.69l-6.75 3.416-1.527 3.375ZM178.12 94.873c3.898-.157 6.201-4.664 6.201-4.664s.387 5.521-6.02 7.72ZM195.147 216.273a.25.25 0 0 1-.247-.216l-4.75-34.95a.25.25 0 1 1 .495-.068l4.75 34.95a.25.25 0 0 1-.213.282.197.197 0 0 1-.035.002Z" class="color0a0909 svgShape"></path><path fill="#2f3e46" d="M191.077 189.537a3.723 3.723 0 0 1-2.002-.625c-1.847-1.179-3.169-3.8-3.928-7.792a.25.25 0 0 1 .491-.094c.91 4.779 2.507 6.69 3.688 7.452a2.908 2.908 0 0 0 2.122.526.25.25 0 0 1 .121.485 2.133 2.133 0 0 1-.492.048ZM187.075 84.064a.25.25 0 0 1-.228-.148c-.04-.09-.975-2.216-.23-3.663a2.305 2.305 0 0 1 1.7-1.184.25.25 0 0 1 .099.49 1.808 1.808 0 0 0-1.355.921c-.634 1.233.233 3.213.243 3.232a.25.25 0 0 1-.127.33.244.244 0 0 1-.102.022Z" class="color0a0909 svgShape"></path><path fill="#2f3e46" d="M188.634 81.975a.25.25 0 0 1-.208-.111 1.348 1.348 0 0 0-1.704-.553.248.248 0 0 1-.332-.12.25.25 0 0 1 .12-.333 1.848 1.848 0 0 1 2.332.728.25.25 0 0 1-.208.389Z" class="color0a0909 svgShape"></path><path fill="#ffffff" d="M190.149 92.238c2.235 2.21 4.33 8.73 4.33 8.73s-.79 13.954-2.166 13.922-3.947-6.781-5.353-7.625a23.502 23.502 0 0 1 1.888-7.192c1.607-3.455 1.797-5.625 1.3-7.835ZM178.344 98.667l-1.87 4.058s4.74 11.491 6.347 11.491 1.929-5.545 4.139-6.95c0 0-.523-1.97-3.777-3.536a11.495 11.495 0 0 1-4.839-5.063Z" class="colorfff svgShape"></path><path fill="#2f3e46" d="M164.66 152.789a.249.249 0 0 1-.175-.072l-4.821-4.774a.25.25 0 0 1 .351-.356l4.821 4.774a.25.25 0 0 1-.175.428ZM178.824 85.408a.663.663 0 1 1-.663-.663.663.663 0 0 1 .663.663ZM173.038 86.553a.663.663 0 1 1-.663-.663.663.663 0 0 1 .663.663ZM177.035 91.042a.25.25 0 0 1-.023-.5 1.606 1.606 0 0 0 1.386-1.248.254.254 0 0 1 .296-.193.25.25 0 0 1 .193.296 2.101 2.101 0 0 1-1.829 1.644Z" class="color0a0909 svgShape"></path><path fill="#ffffff" d="M177.803 95.156a5.557 5.557 0 0 1-4.737-2.781 18.977 18.977 0 0 1-2.56-8.15.25.25 0 0 1 .234-.265.242.242 0 0 1 .265.234 18.834 18.834 0 0 0 2.48 7.907 4.874 4.874 0 0 0 5.094 2.481.25.25 0 0 1 .128.484 3.987 3.987 0 0 1-.904.09ZM147.234 138.372a.256.256 0 0 1-.047-.004.25.25 0 0 1-.2-.292c.025-.13 2.49-13.137 4.68-18.656.364-.917.684-1.79.987-2.619 1.563-4.268 2.693-7.352 7.084-9.293 5.092-2.251 8.792-3.65 8.829-3.663a.25.25 0 0 1 .177.468c-.037.014-3.725 1.407-8.804 3.652-4.196 1.856-5.295 4.856-6.816 9.008-.306.833-.627 1.71-.993 2.632-2.172 5.474-4.628 18.433-4.652 18.564a.25.25 0 0 1-.245.203Z" class="colorfff svgShape"></path><path fill="#fc7f61" d="m205.09 283.553 3.526 18.056 15.107-2.25-.763-17.539-17.87 1.733zM179.991 281.493l3.271 17.866 15.309-1.125v-18.545l-18.58 1.804z" class="colorfc7f61 svgShape"></path><path fill="#2f3e46" d="m179.991 281.493 5.635.751-.191-1.28-5.444.529zM205.09 283.553l1.734.808-.258-.952-1.476.144zM177.682 275.5a.25.25 0 0 1-.03-.497l6.724-.853a.25.25 0 0 1 .063.496l-6.725.853a.236.236 0 0 1-.032.002ZM203.261 279.363a.25.25 0 0 1-.048-.495l2.064-.406a.25.25 0 1 1 .097.49l-2.064.406a.24.24 0 0 1-.049.005Z" class="color0a0909 svgShape"></path></g><path fill="#2f3e46" d="M298.375 304.984h-51.107s3.415-4.143 35.126-4.143c19.04 0 15.981 4.143 15.981 4.143ZM259.643 58.368c4.018-3.536 9-4.66 15.99-2.41s8.438 10.687 8.438 10.687a32.218 32.218 0 0 1 25.072.884s-3.536-1.286-10.848-1.045c0 0 10.446-.723 20.009 14.063 0 0-14.545-5.224-24.268-5.304s-12.375.616-15.429-1.259-6 7.018-6 7.018a13.584 13.584 0 0 1-11.518-2.947c-5.544-4.58-6.24-12.535-6.053-14.705s4.607-4.982 4.607-4.982Z" class="color0a0909 svgShape"></path><path fill="#52796f" d="m303.464 283.663 1.072 20.517h-36.857s.375-4.017 8.839-8.303 11.773-9.22 11.678-12.214Z" class="color6596fa svgShape"></path><path fill="#ffffff" d="M267.679 304.18a5.456 5.456 0 0 1 .48-1.336l30.859-.472-1.28 1.808Z" class="colorfff svgShape"></path><path fill="#fc7f61" d="M278.607 73.984s-5.545-5.41-4.982-5.945c2.637-2.503 1.768-4.743.321-5.814-1.29-.955-3.957-.601-4.397.818a5.957 5.957 0 1 0-8.986 7.714l-.003.002c2.511 3.01 5.511 5.85 7.226 5.314a4.271 4.271 0 0 0 1.661-1.174c1.232 1.12 3.16 6.103 3.16 6.103Z" class="colorfc7f61 svgShape"></path><path fill="#2f3e46" d="M269.447 74.899a17.173 17.173 0 0 0 2.41-4.17 10.438 10.438 0 0 1-1.205 5.944s-.44-.712-1.205-1.774ZM251.071 105.133c.161 4.476.965 19.422 5.143 25.047 0 0-.214-15.407-5.143-25.047ZM319.75 107.68c3.134-6.642 5.786-23.196 5.786-23.196a31.576 31.576 0 0 0-4.982 11.009 35.64 35.64 0 0 0-.804 12.187Z" class="color0a0909 svgShape"></path><path fill="#ffffff" d="M309.483 126.307c5.338 8.052 18.624 15.82 27.196 25.436s5.785 36.187 4.5 56.759-5.143 54.857-5.143 54.857l-21.857-1.286s.214-21.643-1.286-40.714l-5.572 42H286.75s.429-21.643 0-56.571-10.488-48.946-10.488-48.946 15.453-24.159 33.22-31.535Z" class="colorfff svgShape"></path><path fill="#84a98c" d="M271.498 85.551C265 90.86 251.07 105.133 251.07 105.133a129.122 129.122 0 0 1 5.143 25.047s6.107-6.321 9.322-9 5.962-35.629 5.962-35.629Z" class="color1036bf svgShape"></path><path fill="#2f3e46" d="M306.885 149.871c2.177-.499 2.58-1.945 7.24-1.945a31.574 31.574 0 0 0 7.94-.837c1.783-.328 6.636-2.99 6.636-2.99l-1.679-1.356-16.272 2.13Z" class="color0a0909 svgShape"></path><path fill="#fc7f61" d="M324.25 85.288a103.163 103.163 0 0 1 14.625 6.026c7.152 3.697 10.688 5.465 10.688 6.991s-.724 14.625-6.83 26.277-14.626 18.804-17.197 20.491-3.375 2.532-5.545 1.929-7.995-1.165-8.759-.804-2.612 2.853-3.455 3.295-2.01.763-2.09.442a.748.748 0 0 1 0-.482s-1.004.482-1.446.08l1.848-2.25s-.924.884-1.406-.08c0 0-1.045.08-1.406-.482s-.04-.282 1.848-1.487a13.73 13.73 0 0 0 3.857-4.66c.201-.523.08-1.528.844-1.528s6.308.242 9.16-.04 4.34-2.33 5.867-6.147 6.468-15.75 5.585-24.59c0 0-.322-1.928-11.25-3.294a18.783 18.783 0 0 1 1.366-9.482c2.089-4.42 3.535-7.393 3.696-10.205Z" class="colorfc7f61 svgShape"></path><path fill="#2f3e46" d="M258.196 67.368a14.366 14.366 0 0 0 5.947 0 12.061 12.061 0 0 0 5.946-2.732 18.229 18.229 0 0 1-5.946 1.509s5.072-1.062 7.759-4.58-7.438-3.519-7.438-3.519l-4.58 2.411-2.572 3.777ZM325.06 85.551s-4.758 14.035-4.672 19.582h-.839a29.43 29.43 0 0 1 1.005-9.64 36.353 36.353 0 0 1 4.505-9.942Z" class="color0a0909 svgShape"></path><path fill="#84a98c" d="M280.576 74.858c-6.04 2.93-11.183 13.75-13.326 21.465s-3.429 24-2.679 35.679 3.215 22.714 6.536 27.964c0 0 5.036.563 15.643-12.2s16.821-19.353 21.75-21.148 8.679.134 8.679 2.598c0 0 1.714-1.821-4.929-6.428s-7.393-12.75-6.214-15.215a12.311 12.311 0 0 1 7.393-.964c4.607.643 6.321 1.071 6.321 1.071s-.934-4.577 1.366-11.625a111.612 111.612 0 0 1 4.42-11.571s-4.291-4.912-22.074-8.08-22.886-1.546-22.886-1.546Z" class="color1036bf svgShape"></path><path fill="#2f3e46" d="M306.036 107.573c-3.08 1.62-3.724 2.907-3.724 2.907s2.522-.682 3.27.161a6.107 6.107 0 0 1 .454-3.068ZM264.379 122.187c.057-2.295.336-7.965.336-7.965s-2.164 7.923-2.815 10.28Z" class="color0a0909 svgShape"></path><path fill="#fc7f61" d="M251.342 105.974c-1.181.608-2.253 1.492-2.36-2.9a69.423 69.423 0 0 1 2.09-19.112c1.941-6.911 4.593-8.96 4.714-10.487a12.094 12.094 0 0 0-.322-3.295l.4-.55s-.176-.523-.582-2.571a15.045 15.045 0 0 1-.17-4.1s.567-.654 1.799-1.805 1.018-2.277.803-2.438-1.178 1.018-2.812 1.955-3.67 2.384-4.607 2.599-1.274.375-1.334 1.66.048 6.134-.97 7.822-9.804 16.794-12.777 25.955-3.294 20.813.965 24.911 15.076 2.602 19.11-.306c0 0-1.586-10.955-3.947-17.338Z" class="colorfc7f61 svgShape"></path><path fill="#2f3e46" d="M251.342 105.974s2.517 14.538 2.923 17.967l1.209.56s-2.066-14.544-4.132-18.527Z" class="color0a0909 svgShape"></path><path fill="#ffffff" d="M271.902 84.785a14.945 14.945 0 0 1 .705-3.783l6-7.018 2.371.78a15.396 15.396 0 0 0-4.701 4.015 40.71 40.71 0 0 0-4.375 6.006Z" class="colorfff svgShape"></path><path fill="#2f3e46" d="M277.717 160.341c5.47-1.607 9.46-10.848 17.229-19.366a34.647 34.647 0 0 1 18.271-10.179s1.76 1.72 2.123 2.053c0 0 1.788-2.212 1.839-3.633s-1.299-2.873-4.065-3.251-5.153.314-8.922 3.162-9.084 8.697-13.263 13.668-9.499 11.504-14.667 15.047Z" class="color0a0909 svgShape"></path><path fill="#fc7f61" d="M315.884 262.174c.223 4.881 1.455 22.614 1.455 22.614h14.893l2.086-21.53ZM287.554 263.359l.642 20.304h15.268a201.188 201.188 0 0 0 2.357-20.304Z" class="colorfc7f61 svgShape"></path><path fill="#2f3e46" d="m315.884 262.174 18.281 2.667.153-1.583-18.434-1.084zM287.554 263.359l18.177 1.85a12.185 12.185 0 0 0 .09-1.85Z" class="color0a0909 svgShape"></path><path fill="#52796f" d="m332.232 284.788.964 20.196h-35.571s-.268-4.554 9.054-8.786 10.66-11.41 10.66-11.41Z" class="color6596fa svgShape"></path><path fill="#ffffff" d="M304.764 297.142c1.54 2.163 6.843.02 9.897-2.604a15.572 15.572 0 0 0 5.25-8.25c.589-2.625.75-3.375.589-3.965s-3.382-.747-3.33 0 .223 3.643-1.116 5.572-4.794 5.261-11.29 9.247ZM275.058 296.657c1.513 1.202 3.442.88 6.763-.78a18.736 18.736 0 0 0 8.09-7.768 11.26 11.26 0 0 0 1.714-7.286c0-1.232-3.58-1.93-3.527-.268s.58 3.215-.812 6-6 6.804-12.228 10.102ZM297.625 304.984a5.7 5.7 0 0 1 .214-1.179l35.265-.755.092 1.934Z" class="colorfff svgShape"></path><path fill="#2f3e46" d="M312.84 218.93a.25.25 0 0 1-.25-.245c-.26-13.774-.87-46.032-14.692-57.023a.25.25 0 0 1 .311-.392c14.006 11.138 14.619 43.56 14.88 57.406a.25.25 0 0 1-.245.255ZM323.5 256.859l-.02-.001-9.32-.749a.25.25 0 1 1 .04-.498l9.32.749a.25.25 0 0 1-.02.499ZM336.705 257.505h-.017l-10.204-.647a.25.25 0 1 1 .032-.499l10.204.646a.25.25 0 0 1-.015.5ZM308.043 258.17h-.008l-21.206-.665a.25.25 0 1 1 .015-.5l21.207.664a.25.25 0 0 1-.008.5ZM311.286 298.28a.248.248 0 0 1-.156-.054 24.527 24.527 0 0 0-4.238-2.27.25.25 0 1 1 .194-.461 24.44 24.44 0 0 1 4.355 2.34.25.25 0 0 1-.155.446ZM315.884 296.18a.25.25 0 0 1-.23-.149c-.532-1.213-4.291-1.975-5.695-2.166a.25.25 0 0 1-.214-.282.247.247 0 0 1 .281-.213c.545.074 5.346.773 6.087 2.46a.25.25 0 0 1-.23.35ZM318.357 292.966a.246.246 0 0 1-.098-.02 24.984 24.984 0 0 0-5.356-1.471.25.25 0 0 1 .071-.495 25.571 25.571 0 0 1 5.48 1.506.25.25 0 0 1-.097.48ZM312.206 290.07a1.84 1.84 0 0 1-1.061-.308.802.802 0 0 1-.437-.824c.189-1.031 3.095-1.994 4.852-2.484-2.353-.402-5.853-1.147-6.046-2.05-.035-.165-.004-.408.344-.63 1.79-1.142 6.227 1.837 6.995 2.37h4.772a.25.25 0 0 1 0 .5h-3.93a.248.248 0 0 1-.07.19c-.15.153-3.195 3.236-5.419 3.236Zm4.598-3.425c-2.256.545-5.468 1.64-5.604 2.383-.018.098.058.206.226.321 1.433.975 4.443-1.487 5.68-2.704Zm-5.921-2.635a1.392 1.392 0 0 0-.756.184c-.108.07-.124.113-.124.113.08.403 2.566 1.12 5.655 1.654-1.393-.862-3.469-1.951-4.775-1.951ZM283.804 297.128a.253.253 0 0 1-.11-.025l-4.97-2.43a.25.25 0 1 1 .22-.448l4.97 2.429a.25.25 0 0 1-.11.474ZM287.232 295.024a.248.248 0 0 1-.128-.035c-.123-.048-3.57-1.246-5.85-2.036a.25.25 0 0 1-.154-.319.253.253 0 0 1 .318-.154c5.867 2.034 5.914 2.062 5.942 2.079a.25.25 0 0 1-.128.465ZM289.59 292.222a.25.25 0 0 1-.211-.115c-.254-.312-3.005-.945-5.406-1.35a.25.25 0 0 1-.205-.287.255.255 0 0 1 .288-.205c1.596.269 5.351.96 5.744 1.572a.25.25 0 0 1-.21.385ZM285.566 288.873a.971.971 0 0 1-.568-.192.773.773 0 0 1-.368-.715c.055-.658 1-1.376 1.817-1.878-1.427.114-3.585.146-4.15-.644a.941.941 0 0 1-.002-1.038 1.443 1.443 0 0 1 1.02-.792c1.543-.34 3.987 1.486 4.44 1.837h6.763a.25.25 0 0 1 0 .5h-6.673c-.226.626-.996 2.554-1.985 2.875a.95.95 0 0 1-.294.047Zm1.635-2.645c-.972.545-2.034 1.309-2.073 1.78-.005.067.008.157.16.266a.446.446 0 0 0 .418.076c.533-.172 1.121-1.226 1.495-2.122Zm-3.48-2.155a1.438 1.438 0 0 0-.302.03.952.952 0 0 0-.679.531c-.152.297-.094.439-.036.52.426.594 2.666.562 4.319.377a7.202 7.202 0 0 0-3.301-1.458ZM272.902 66.453a.25.25 0 0 1-.211-.116 3.397 3.397 0 0 1 .007-3.632.25.25 0 1 1 .408.29 2.934 2.934 0 0 0 .007 3.073.25.25 0 0 1-.211.385Z" class="color0a0909 svgShape"></path><path fill="#2f3e46" d="M274.188 64.776a.251.251 0 0 1-.2-.098c-.472-.622-1.467-.188-1.478-.182a.25.25 0 0 1-.205-.456c.055-.025 1.365-.606 2.082.335a.25.25 0 0 1-.2.401ZM306.21 149.216a.124.124 0 0 1-.086-.034.125.125 0 0 1-.004-.177c1.75-1.837 3.716-4.386 3.824-4.96a.123.123 0 0 1 .146-.1.125.125 0 0 1 .1.147c-.127.674-2.245 3.36-3.89 5.086a.125.125 0 0 1-.09.038ZM306.09 147.408a.125.125 0 0 1-.096-.206c.03-.035 3.006-3.536 3.555-4.907a.128.128 0 0 1 .162-.07.126.126 0 0 1 .07.163c-.564 1.409-3.473 4.831-3.596 4.976a.126.126 0 0 1-.096.044ZM304.683 147.328a.124.124 0 0 1-.086-.035.125.125 0 0 1-.005-.176 32.166 32.166 0 0 0 3.595-4.43c.683-1.366 1.159-2.33 1.159-2.33a.125.125 0 1 1 .224.11s-.476.966-1.16 2.332a31.573 31.573 0 0 1-3.636 4.49.125.125 0 0 1-.09.039ZM325.004 142.924a1.389 1.389 0 0 1-.435-.063.125.125 0 0 1-.075-.16.129.129 0 0 1 .159-.076 1.525 1.525 0 0 0 1.607-.586.125.125 0 0 1 .189.165 1.894 1.894 0 0 1-1.445.72ZM264.834 111.448h-.004a.125.125 0 0 1-.121-.13c.43-11.78 6.612-25.679 6.674-25.818a.124.124 0 0 1 .166-.063.126.126 0 0 1 .063.165c-.063.14-6.225 13.995-6.653 25.726a.125.125 0 0 1-.125.12ZM326.5 256.734h-.006a.126.126 0 0 1-.119-.131c.014-.3 1.402-30.425 2.201-58.058.738-25.516-4.015-42.042-14.53-50.522a.125.125 0 0 1 .158-.194c10.58 8.532 15.362 25.124 14.622 50.723-.8 27.635-2.187 57.761-2.201 58.063a.125.125 0 0 1-.125.119ZM265.03 69.015a.673.673 0 1 1-.674-.673.673.673 0 0 1 .673.673ZM265.536 74.341a.25.25 0 0 1-.227-.356 3.421 3.421 0 0 0 .475-2.323.251.251 0 0 1 .145-.32.247.247 0 0 1 .32.138c.016.037.353.925-.487 2.717a.25.25 0 0 1-.226.144Z" class="color0a0909 svgShape"></path><path fill="#ffffff" d="M242.555 126.155a9.142 9.142 0 0 1-5.661-1.96c-2.375-1.9-3.776-5.023-4.164-9.282-1.105-12.12 5.415-24.122 5.48-24.242a.25.25 0 0 1 .439.241c-.065.12-6.511 11.992-5.42 23.956.374 4.114 1.71 7.119 3.97 8.93a8.745 8.745 0 0 0 6.019 1.824.25.25 0 0 1 .065.496 6.067 6.067 0 0 1-.728.037ZM305.888 94.126a4.772 4.772 0 0 1-2.814-.916 7.042 7.042 0 0 1-2.862-4.824 7.997 7.997 0 0 1-3.536-.625c-6.333-2.471-5.028-13.226-5.014-13.335a.125.125 0 0 1 .248.032c-.014.107-1.294 10.67 4.857 13.07a7.758 7.758 0 0 0 3.414.608 8.578 8.578 0 0 1 .032-2.071c.241-1.785 1.024-3.257 1.904-3.581a1.053 1.053 0 0 1 1.113.246 2.966 2.966 0 0 1 .307 3.771 4.1 4.1 0 0 1-3.064 1.858 6.684 6.684 0 0 0 2.746 4.648c2.573 1.839 5.229.396 6.582-.628a11.703 11.703 0 0 0 3.772-5.018 3.67 3.67 0 0 1-2.174-3.232 1.757 1.757 0 0 1 1.169-1.797c.287-.05 1.009-.002 1.514 1.401a5.414 5.414 0 0 1-.208 3.506 8.474 8.474 0 0 0 2.046.712c2.296.511 4.108.254 5.38-.762a6.159 6.159 0 0 0 1.952-4.34.125.125 0 0 1 .125-.125.125.125 0 0 1 .125.125 6.297 6.297 0 0 1-2.044 4.534c-1.335 1.068-3.216 1.34-5.593.812a8.782 8.782 0 0 1-2.077-.72 11.938 11.938 0 0 1-3.836 5.104 6.824 6.824 0 0 1-4.064 1.547Zm-3.406-11.46a.802.802 0 0 0-.278.053c-.785.288-1.517 1.71-1.743 3.38a8.482 8.482 0 0 0-.019 2.01 3.851 3.851 0 0 0 2.882-1.738 2.72 2.72 0 0 0-.261-3.455.864.864 0 0 0-.58-.25Zm10.228-.096a.662.662 0 0 0-.103.009c-.513.081-.934.766-.958 1.558a3.416 3.416 0 0 0 2.01 2.985 5.129 5.129 0 0 0 .188-3.304c-.288-.801-.698-1.248-1.137-1.248ZM268.665 150.353a9.013 9.013 0 0 1-1.386-.094.124.124 0 0 1-.101-.145.121.121 0 0 1 .144-.101 9.227 9.227 0 0 0 6.56-1.517c1.722-1.35 2.693-3.497 2.886-6.382.167-2.487-.351-3.887-1.011-4.673a4.736 4.736 0 0 1-1.347 1.934 2.76 2.76 0 0 1-3.706.168 1.32 1.32 0 0 1-.333-1.734 3.793 3.793 0 0 1 4.089-1.51 2.982 2.982 0 0 1 1.193.67 6.656 6.656 0 0 0-.903-5.326c-3.228-5.408-9.921-2.872-9.99-2.846a.126.126 0 0 1-.16-.071.124.124 0 0 1 .07-.162c.069-.027 6.957-2.641 10.294 2.952a6.845 6.845 0 0 1 .89 5.653c.74.81 1.343 2.283 1.163 4.961-.198 2.96-1.202 5.169-2.983 6.564a8.77 8.77 0 0 1-5.369 1.66Zm4.876-13.931a3.533 3.533 0 0 0-2.95 1.506 1.063 1.063 0 0 0 .276 1.425 2.522 2.522 0 0 0 3.382-.17 4.509 4.509 0 0 0 1.318-1.949 2.75 2.75 0 0 0-1.176-.696 3.07 3.07 0 0 0-.85-.116ZM302.525 123.475a3.76 3.76 0 0 1-3.108-1.858 9.802 9.802 0 0 1-7.829-.857 7.287 7.287 0 0 1-3.783-5.506.126.126 0 0 1 .108-.14.129.129 0 0 1 .14.108 7.045 7.045 0 0 0 3.659 5.32 9.565 9.565 0 0 0 7.57.86c-.963-1.622-1.172-3.784-.45-4.764a1.254 1.254 0 0 1 1.422-.454c1.317.338 2.115 1.08 2.189 2.033.094 1.216-.999 2.503-2.792 3.301a3.418 3.418 0 0 0 3.475 1.655c4.577-.78 5.398-3.878 5.406-3.91a.125.125 0 1 1 .242.061c-.008.033-.87 3.288-5.606 4.095a3.78 3.78 0 0 1-.643.056Zm-2.697-7.098a.943.943 0 0 0-.795.41c-.661.897-.434 2.996.483 4.518 1.715-.753 2.763-1.953 2.677-3.069-.064-.84-.794-1.5-2.001-1.81a1.454 1.454 0 0 0-.364-.049Z" class="colorfff svgShape"></path><g fill="#2f3e46" class="color000 svgShape"><path fill="#ffffff" d="M138.912 116.391h-5.674a3.619 3.619 0 0 1-3.614-3.614v-8.865a3.618 3.618 0 0 1 3.614-3.614h5.674a3.618 3.618 0 0 1 3.614 3.614v8.865a3.619 3.619 0 0 1-3.614 3.614Zm-5.674-15.593a3.118 3.118 0 0 0-3.114 3.114v8.865a3.118 3.118 0 0 0 3.114 3.114h5.674a3.118 3.118 0 0 0 3.114-3.114v-8.865a3.118 3.118 0 0 0-3.114-3.114ZM212.168 91.2H201.96a3.618 3.618 0 0 1-3.614-3.614V69.653a3.619 3.619 0 0 1 3.614-3.615h10.208a3.619 3.619 0 0 1 3.614 3.615v17.933a3.618 3.618 0 0 1-3.614 3.614ZM201.96 66.538a3.118 3.118 0 0 0-3.114 3.115v17.933a3.117 3.117 0 0 0 3.114 3.114h10.208a3.118 3.118 0 0 0 3.114-3.114V69.653a3.118 3.118 0 0 0-3.114-3.115ZM376.068 99.797H365.86a3.618 3.618 0 0 1-3.614-3.614V78.25a3.618 3.618 0 0 1 3.614-3.613h10.208a3.618 3.618 0 0 1 3.614 3.613v17.934a3.618 3.618 0 0 1-3.614 3.614ZM365.86 75.136a3.118 3.118 0 0 0-3.114 3.113v17.934a3.118 3.118 0 0 0 3.114 3.114h10.208a3.118 3.118 0 0 0 3.114-3.114V78.249a3.118 3.118 0 0 0-3.114-3.113Z" class="colorfff svgShape"></path><path fill="#ffffff" d="M361.72 223.57H120.16a11.25 11.25 0 0 1-11.237-11.238V51.692a11.25 11.25 0 0 1 11.238-11.237h241.56a11.25 11.25 0 0 1 11.238 11.238v160.639a11.25 11.25 0 0 1-11.238 11.238ZM120.16 40.955a10.75 10.75 0 0 0-10.737 10.738v160.639a10.75 10.75 0 0 0 10.738 10.738h241.56a10.75 10.75 0 0 0 10.738-10.738V51.692a10.75 10.75 0 0 0-10.738-10.737Z" class="colorfff svgShape"></path><rect width="20.572" height="27.689" x="356.393" y="67.654" fill="#ffffff" rx="2.228" class="colorfff svgShape"></rect><path fill="#2f3e46" d="M374.179 73.082h-14.786a.25.25 0 0 1 0-.5h14.786a.25.25 0 0 1 0 .5ZM374.179 76.923h-14.786a.25.25 0 0 1 0-.5h14.786a.25.25 0 0 1 0 .5ZM374.179 80.765h-14.786a.25.25 0 0 1 0-.5h14.786a.25.25 0 0 1 0 .5ZM374.179 84.605h-14.786a.25.25 0 0 1 0-.5h14.786a.25.25 0 0 1 0 .5ZM374.179 88.447h-14.786a.25.25 0 0 1 0-.5h14.786a.25.25 0 0 1 0 .5Z" class="color0a0909 svgShape"></path><path fill="#ffffff" d="M329.29 55.157h9.768a2.228 2.228 0 0 1 2.228 2.228v14.689a2.228 2.228 0 0 1-2.228 2.227h-9.768a2.228 2.228 0 0 1-2.228-2.227V57.385a2.228 2.228 0 0 1 2.228-2.228Z" class="colorfff svgShape"></path><path fill="#2f3e46" d="M339.36 58.988h-10.223a.25.25 0 0 1 0-.5h10.222a.25.25 0 0 1 0 .5ZM339.36 61.643h-10.223a.25.25 0 0 1 0-.5h10.222a.25.25 0 0 1 0 .5ZM339.36 64.3h-10.223a.25.25 0 0 1 0-.5h10.222a.25.25 0 0 1 0 .5ZM339.36 66.955h-10.223a.25.25 0 0 1 0-.5h10.222a.25.25 0 0 1 0 .5ZM339.36 69.611h-10.223a.25.25 0 0 1 0-.5h10.222a.25.25 0 0 1 0 .5Z" class="color0a0909 svgShape"></path><path fill="#ffffff" d="M211.559 62.397h12.968a2.228 2.228 0 0 1 2.228 2.227v18.997a2.228 2.228 0 0 1-2.228 2.227H211.56a2.228 2.228 0 0 1-2.228-2.227V64.624a2.228 2.228 0 0 1 2.228-2.227Z" class="colorfff svgShape"></path><path fill="#2f3e46" d="M224.396 67.033h-12.524a.25.25 0 0 1 0-.5h12.524a.25.25 0 0 1 0 .5ZM224.396 70.286h-12.524a.25.25 0 0 1 0-.5h12.524a.25.25 0 0 1 0 .5ZM224.396 73.54h-12.524a.25.25 0 0 1 0-.5h12.524a.25.25 0 0 1 0 .5ZM224.396 76.793h-12.524a.25.25 0 0 1 0-.5h12.524a.25.25 0 0 1 0 .5ZM224.396 80.046h-12.524a.25.25 0 0 1 0-.5h12.524a.25.25 0 0 1 0 .5Z" class="color0a0909 svgShape"></path><path fill="#ffffff" d="M139.532 95.808h7.293a2.228 2.228 0 0 1 2.227 2.228v11.357a2.228 2.228 0 0 1-2.227 2.227h-7.293a2.228 2.228 0 0 1-2.228-2.227V98.036a2.228 2.228 0 0 1 2.228-2.228Z" class="colorfff svgShape"></path><path fill="#2f3e46" d="M147.461 99.016h-8.443a.25.25 0 0 1 0-.5h8.443a.25.25 0 0 1 0 .5ZM147.461 101.209h-8.443a.25.25 0 0 1 0-.5h8.443a.25.25 0 0 1 0 .5ZM147.461 103.403h-8.443a.25.25 0 0 1 0-.5h8.443a.25.25 0 0 1 0 .5ZM147.461 105.596h-8.443a.25.25 0 0 1 0-.5h8.443a.25.25 0 0 1 0 .5ZM147.461 107.79h-8.443a.25.25 0 0 1 0-.5h8.443a.25.25 0 0 1 0 .5Z" class="color0a0909 svgShape"></path><path fill="#ffffff" d="M252.045 49.17h-2.535v-1.755a2.378 2.378 0 0 1 .357-1.391 8.313 8.313 0 0 1 1.567-1.443 3.902 3.902 0 0 0 1.846-3.003 2.526 2.526 0 0 0-.722-1.898 2.58 2.58 0 0 0-1.878-.702q-2.678 0-3.16 3.705l-2.833-.507a6.34 6.34 0 0 1 2.048-4.348 6.249 6.249 0 0 1 4.283-1.58 5.878 5.878 0 0 1 4.108 1.476 4.757 4.757 0 0 1 1.625 3.672 4.931 4.931 0 0 1-.449 2.073 4.82 4.82 0 0 1-1.02 1.521 30.56 30.56 0 0 1-2.418 1.892 1.838 1.838 0 0 0-.663.734 5.353 5.353 0 0 0-.156 1.554Zm.52 1.846v3.25h-3.055v-3.25Z" class="colorfff svgShape"></path><path fill="#2f3e46" d="M134.435 81.564a.74.74 0 1 1-.74-.74.74.74 0 0 1 .74.74ZM128.02 81.564a.74.74 0 1 1-.74-.74.74.74 0 0 1 .74.74ZM140.203 81.564a.74.74 0 1 1-.74-.74.74.74 0 0 1 .74.74ZM145.971 81.564a.74.74 0 1 1-.74-.74.74.74 0 0 1 .74.74Z" class="color0a0909 svgShape"></path></g><g fill="#2f3e46" class="color000 svgShape"><path fill="#2f3e46" d="M384.357 305.234a.25.25 0 0 1-.222-.365c.071-.137 7.074-13.683 5.093-18.425a2.322 2.322 0 0 0-1.516-1.418c-4.393-1.346-12.024 10.732-15.694 16.54-1.833 2.904-2.294 3.59-2.605 3.661a.34.34 0 0 1-.278-.083c-.21-.223-.092-.692.743-3.514 1.502-5.077 4.629-15.643 1.898-19.203a3.179 3.179 0 0 0-2.84-1.213c-9.353.24-16.306 23.246-16.375 23.478a.25.25 0 0 1-.24.179h-15.617a.25.25 0 0 1 0-.5h15.432c.714-2.34 7.413-23.416 16.786-23.657a3.738 3.738 0 0 1 3.25 1.409c2.887 3.762-.171 14.097-1.814 19.649-.297 1.004-.583 1.97-.725 2.56.43-.607 1.18-1.795 1.962-3.032 4.023-6.368 11.511-18.218 16.264-16.751a2.828 2.828 0 0 1 1.83 1.702c1.735 4.154-2.819 14.183-4.514 17.658 2.343-2.058 7.893-6.585 10.06-5.245 1.023.631 1.124 2.355.309 5.267h23.527a.25.25 0 0 1 0 .5h-23.859a.25.25 0 0 1-.24-.321c.818-2.78.819-4.516.001-5.02-1.939-1.197-8.199 3.98-10.446 6.076a.248.248 0 0 1-.17.068ZM129.786 313.752h-13.822a.25.25 0 0 1-.24-.183c-.053-.187-5.324-18.756-10.878-19.4a1.03 1.03 0 0 0-1.079.38c-1.584 2.416 4.712 14.41 7.27 18.827a.25.25 0 0 1-.417.274c-.073-.1-7.378-9.907-15.47-7.204-1.337.447-2.033.959-2.012 1.48.072 1.776 7.19 4.162 11.957 5.333a.25.25 0 0 1-.06.493H80.93a.25.25 0 1 1 0-.5h22.176c-3.493-.971-10.379-3.156-10.467-5.305-.032-.79.738-1.435 2.354-1.976 6.104-2.038 11.732 2.688 14.403 5.494-2.47-4.522-7.683-14.695-6.046-17.19a1.5 1.5 0 0 1 1.555-.602c5.642.653 10.654 17.507 11.25 19.579h13.632a.25.25 0 0 1 0 .5Z" class="color0a0909 svgShape"></path></g><g data-name="man sit on chair" fill="#2f3e46" class="color000 svgShape"><path fill="#2f3e46" d="M195.84 313.502h34.017s-2.094-1.676-17.468-2.462-16.55 2.462-16.55 2.462Z" class="color0a0909 svgShape"></path><path fill="#84a98c" d="m201.464 288.029 2.491 21.375-33.428 4.098s-.938-5.25 6.777-10.018 9.775-11.093 9.375-13.929Z" class="color1036bf svgShape"></path><path fill="#ffffff" d="M170.527 313.502s-.04-.415-.036-.59l27.774-4.334-1.25 1.677Z" class="colorfff svgShape"></path><path fill="#84a98c" d="M209.5 293.921c.723 4.152-.508 8.25-6 11.063s-6.857 4.982-7.66 8.518l33.098-3.375-3.849-19.206Z" class="color1036bf svgShape"></path><path fill="#ffffff" d="M202.59 305.466c1.392 1.34 4.178.964 6.964-1.928s3.634-9.697 2.835-11.518-3.302-.248-3.018 1.452a10.22 10.22 0 0 1-.976 6.851 12.044 12.044 0 0 1-5.806 5.143ZM176.196 304.213c2.768.985 5.072.316 8.929-3.448s5.388-9.227 5.185-11.585-3.934-1.778-3.934-1.778a9.316 9.316 0 0 1 .303 2.153c.107 1.608-1.125 6.252-4.018 9.153a55.583 55.583 0 0 1-6.465 5.505ZM195.84 313.502a5.13 5.13 0 0 1 .316-1.207l32.394-4.103.388 1.935Z" class="colorfff svgShape"></path><path fill="#2f3e46" d="M208.509 305.556a.255.255 0 0 1-.089-.017l-3.418-1.295a.25.25 0 1 1 .177-.468l3.418 1.296a.25.25 0 0 1-.088.484ZM211.08 303.332a.267.267 0 0 1-.047-.004l-4.053-.785a.25.25 0 1 1 .095-.49l4.052.784a.25.25 0 0 1-.046.495ZM212.389 300.76h-.012l-3.994-.187a.25.25 0 0 1-.237-.262.253.253 0 0 1 .26-.237l3.994.187a.25.25 0 0 1-.011.5ZM209.566 295.618a.25.25 0 0 1-.024-.499l4.165-.428a.253.253 0 0 1 .273.223.25.25 0 0 1-.223.274l-4.165.428Z" class="color0a0909 svgShape"></path><path fill="#2f3e46" d="M208.292 297.94a.724.724 0 0 1-.086-.005.831.831 0 0 1-.679-.615 1.21 1.21 0 0 1 .087-1.128 2.362 2.362 0 0 1 1.314-.824c-1.368-.278-2.954-.736-3.088-1.379-.037-.18.005-.451.421-.708 1.835-1.138 4.61 1.665 4.725 1.784a.536.536 0 0 1 .029.443c-.28.414-1.696 2.432-2.723 2.432Zm2.028-2.318c-.58.043-1.904.258-2.287.844a.712.712 0 0 0-.038.677c.104.277.229.291.27.296.47.06 1.396-.93 2.055-1.817Zm-3.057-2.116a1.377 1.377 0 0 0-.739.2c-.17.105-.196.173-.194.182.07.34 1.907.9 3.964 1.212a5.621 5.621 0 0 0-3.031-1.594ZM183.262 304.537a.249.249 0 0 1-.1-.02l-4.591-1.99a.25.25 0 0 1-.13-.329.248.248 0 0 1 .33-.13l4.59 1.99a.25.25 0 0 1-.1.48ZM185.982 302.548a.247.247 0 0 1-.067-.01l-5.494-1.532a.25.25 0 1 1 .135-.482l5.493 1.533a.25.25 0 0 1-.067.49ZM188.018 299.609l-.02-.001-5.576-.433a.25.25 0 0 1-.23-.269.244.244 0 0 1 .269-.23l5.576.434a.25.25 0 0 1-.019.499ZM184.43 297.228a1.957 1.957 0 0 1-.861-.216 1.34 1.34 0 0 1-.89-1.142c-.035-1.087 1.525-2.322 2.542-3.009-2.075.083-6.183.091-6.684-1.094-.162-.382.016-.81.527-1.272 2.746-2.48 7.513 1.096 8.232 1.662l5.09-.69a.242.242 0 0 1 .281.214.25.25 0 0 1-.213.281l-5.017.68c-.146.766-.784 3.64-2.248 4.397a1.63 1.63 0 0 1-.758.19Zm1.818-4.424c-.905.527-3.102 2.032-3.069 3.05.01.28.21.513.61.709a1.236 1.236 0 0 0 1.17.032c1.17-.604 1.768-2.993 1.953-3.882Zm-4.82-2.668a2.923 2.923 0 0 0-2.029.73c-.189.171-.493.49-.401.707.342.81 4.381.92 7.146.74h.005l.438-.06c-.96-.686-3.195-2.117-5.16-2.117ZM195.84 313.502h-63.161s3.173-5.31 61.694-5.31 1.466 5.31 1.466 5.31Z" class="color0a0909 svgShape"></path><path fill="#ffffff" d="M182.929 121.89s-5.665 21.709-6.456 24.469l-17.652-5.571s6.108-17.12 5.25-23.131c0 0 11.465 7.407 18.858 4.233Z" class="colorfff svgShape"></path><path fill="#2f3e46" d="M212.274 132.567a7.84 7.84 0 0 1-5.988 1.096c-3.375-.804-2.84-4.822-1.929-6.322a4.944 4.944 0 0 1-2.893-3.803 4.367 4.367 0 0 1 3.857-5.25 4.703 4.703 0 0 1 3.054.75 3.856 3.856 0 0 1 2.973-2.893 3.18 3.18 0 0 1 3.67 1.714s4.286-3.268 7.232-2.946 4.933 8.49 4.933 8.49Z" class="color0a0909 svgShape"></path><path fill="#354f52" d="M239.5 137.359c4.554-.321 12.429 2.679 19.929 13.125s13.283 23.518 16.833 33.723 4.274 15.59 4.274 15.59-13.822 2.49-28.848 4.66-26.76 3.857-26.76 3.857.206-13.043-2.388-20.825l-5.412-19.319s-6.77-11.632-8.378-13.454c0 0 4.971-3.803 8.378-6.643s6.943-7.5 8.39-8.892 12.308-1.983 12.308-1.983Z" class="color464d7b svgShape"></path><path fill="#fc7f61" d="M229.549 129.062c.683-.824 1.045-5.444-1.84-5.645-2.884-.2-3.275 1.588-3.275 1.588v.002a7.167 7.167 0 1 0-11.675 8.313l-.007.003s4.904 6.728 7.837 6.487a9.32 9.32 0 0 0 4.122-1.168v.001a30.279 30.279 0 0 1 3.231 9.122 16.206 16.206 0 0 0 6.388-4.098 13.942 13.942 0 0 0 3.496-6.469c-3.295-2.21-8.277-8.136-8.277-8.136Z" class="colorfc7f61 svgShape"></path><path fill="#2f3e46" d="M211.804 131.566c2.892.436 2.468-3.528 2.468-3.528a2.947 2.947 0 0 0 3.264-1.5 2.47 2.47 0 0 0-.429-3.161s1.822 1.408 3.482.999 3.998 2.912 3.998 2.912l.93-.858-1.083-1.425s-1.755-3.878-3.684-4.307-8.893.75-10.125 3.161.723 8.143.723 8.143ZM224.714 127.502l.991-.884.322.268-1.152.91-.161-.294zM224.712 138.644a8.431 8.431 0 0 0 2.748-4.783s1.304 5.015-1.176 8.033a21.893 21.893 0 0 0-1.572-3.25Z" class="color0a0909 svgShape"></path><path fill="#fc7f61" d="m221.955 163.475-8.839 8.598s-9.295-4.446-15.455-7.071-13.715-5.143-15.054-7.741-2.277-6.536-2.732-6.59a11.714 11.714 0 0 1-3.723-1.285 7.394 7.394 0 0 1-2.84-2.384c-.24-.402-1.017.134-.642.99a2.984 2.984 0 0 1-.483-.053c-.294-.053-.267.429-.267.429s-.777-.402-.884-.188a1.702 1.702 0 0 0 .83 1.822c.964.67 2.491 2.009 2.491 2.009a4.174 4.174 0 0 1-2.893-.51c-1.285-.856-1.152-.99-1.339-.99s-.59.803.777 2.009 2.785 1.312 3.321 2.035a6.236 6.236 0 0 1 1.366 3.737c.281 2.37.161 5.022 2.09 6.107s3.334 1.005 6.95 3.897 13.139 10.956 17.639 14.438 12.268 8.196 14.678 7.554 12.108-5.84 17.143-13.393a79.341 79.341 0 0 0-12.134-13.42Z" class="colorfc7f61 svgShape"></path><path fill="#fc7f61" d="M209.607 155.948c-.803.697-1.982 1.179-9.214-2.84s-15.161-8.195-15.683-10.486-1.567-6.99-1.688-7.794-2.628-3.249-2.628-3.249-.546 2.807-1.108 2.807-2.532-2.036-3.014-2.384-1.245-.067-1.165.978 1.929 3.977 2.491 5.223.12 4.178.804 6.388 3.214 3.255 4.46 5.063 10.467 12.566 14.072 15.042l16.182 7.377 4.012-3.903s-4.24-8.82-7.521-12.222Z" class="colorfc7f61 svgShape"></path><path fill="#2f3e46" d="M225.09 308.93h-.01a.25.25 0 0 1-.24-.26l2.57-62.25a.247.247 0 0 1 .261-.24.25.25 0 0 1 .24.26l-2.572 62.25a.25.25 0 0 1-.25.24Z" class="color0a0909 svgShape"></path><path fill="#52796f" d="M280.536 199.796c2.25 10.634-2.679 36.349-7.715 36.349s-45.428 1.071-49.071 4.178.857 27.75.857 27.75l-22.393 2.893-1.178-4.928-19.179 2.785s-3.964-23.464-1.286-35.143 9.553-20.303 44.358-25.366 55.607-8.518 55.607-8.518Z" class="colorfeb91e svgShape"></path><path fill="#fc7f61" d="M203.5 270.8c1.018 5.898 6 23.121 6 23.121l15.59-3s-1.77-18.659-2.493-22.588ZM183.375 268.603c1.295 6.408 3.304 20.952 3.304 20.952l14.785-1.526-.428-21.991Z" class="colorfc7f61 svgShape"></path><path fill="#ffffff" d="m237.826 137.198 1.674.16a18.101 18.101 0 0 1-3.08 7.273 13.235 13.235 0 0 1-8.618 5.505l.14-2.37a13.763 13.763 0 0 0 6.147-4.099 18.72 18.72 0 0 0 3.737-6.469Z" class="colorfff svgShape"></path><path fill="#2f3e46" d="M234.09 176.895a31.89 31.89 0 0 1-.898 1.257l.897-1.257a65.183 65.183 0 0 0-12.134-13.42c5.847 6.401 8.866 10.472 11.21 14.712-.636.844-1.046 1.295-1.046 1.295s2.493 2.435 3.457 2.395.2-2.652-1.487-4.982ZM209.607 155.948c2.063 3.51 6.278 13.431 6.278 13.431l1.243-1.209s-3.76-8.2-7.521-12.222ZM203.5 270.8h19.46l-.363-2.467L203.5 270.8zM183.375 268.603h17.711l-.05-2.565-17.661 2.565z" class="color0a0909 svgShape"></path><path fill="#84a98c" d="M281.586 246.43h-56.532a2.84 2.84 0 0 1-2.77-2.211l-1.069-4.713a2.84 2.84 0 0 1 2.77-3.468h56.533a2.84 2.84 0 0 1 2.77 2.211l1.068 4.713a2.84 2.84 0 0 1-2.77 3.468ZM273.418 210.602h-48.893a2.423 2.423 0 0 1-2.395-1.77l-.925-3.77a2.323 2.323 0 0 1 2.396-2.774h48.892a2.423 2.423 0 0 1 2.396 1.77l.924 3.77a2.323 2.323 0 0 1-2.395 2.774ZM290.063 206.081l4.977-38.144a2.03 2.03 0 0 1 1.999-1.64l3.833-.233a2.207 2.207 0 0 1 2.507 2.228l-4.978 38.144a2.03 2.03 0 0 1-1.998 1.64l-3.833.233a2.207 2.207 0 0 1-2.507-2.228Z" class="color1036bf svgShape"></path><path fill="#2f3e46" d="M212.875 172.323a.255.255 0 0 1-.105-.023l-15.684-7.26a.25.25 0 1 1 .21-.454l15.532 7.19 4.818-4.458a.25.25 0 0 1 .34.367l-4.941 4.572a.252.252 0 0 1-.17.066ZM283.348 308.93a.25.25 0 0 1-.25-.232l-4.205-62.25a.25.25 0 1 1 .5-.035l4.205 62.25a.25.25 0 0 1-.233.267ZM276.262 236.287a.25.25 0 0 1-.244-.198l-5.37-25.435a.25.25 0 0 1 .193-.296.253.253 0 0 1 .296.193l5.37 25.435a.25.25 0 0 1-.193.296.272.272 0 0 1-.052.005ZM229.589 236.287a.25.25 0 0 1-.248-.218l-3.214-25.435a.25.25 0 1 1 .496-.063l3.214 25.435a.25.25 0 0 1-.216.28.226.226 0 0 1-.032.001ZM281.586 246.68a.25.25 0 0 1 0-.5c8.767 0 16.655-40.632 16.733-41.042l5.433-40.358a.244.244 0 0 1 .281-.215.249.249 0 0 1 .215.281l-5.435 40.372c-.327 1.706-8.051 41.463-17.227 41.463ZM200.606 264.535a.25.25 0 0 1-.247-.219c-.355-2.793-.78-5.764-1.192-8.638-1.742-12.164-3.543-24.742-1.37-31.608 2.683-8.48 11.365-12.07 11.453-12.105a.25.25 0 1 1 .187.464c-.085.034-8.552 3.542-11.163 11.791-2.139 6.758-.346 19.278 1.388 31.387.411 2.876.837 5.85 1.193 8.646a.25.25 0 0 1-.249.282ZM201.035 266.287a.25.25 0 0 1-.032-.498l13.259-1.752a.25.25 0 0 1 .065.496l-13.259 1.753a.246.246 0 0 1-.033.001ZM216.57 263.93a.25.25 0 0 1-.045-.495l7.113-1.349a.25.25 0 0 1 .093.492l-7.113 1.348a.256.256 0 0 1-.047.005Z" class="color0a0909 svgShape"></path><path fill="#2f3e46" d="M180.931 262.582a.25.25 0 0 1-.045-.496l18.931-3.543a.25.25 0 1 1 .092.492l-18.931 3.543a.251.251 0 0 1-.047.004ZM227.992 128.328a.25.25 0 0 1-.154-.054 3.12 3.12 0 0 1-1.137-2.051 2.618 2.618 0 0 1 .927-2.027.25.25 0 1 1 .348.36 2.145 2.145 0 0 0-.776 1.637 2.654 2.654 0 0 0 .947 1.688.25.25 0 0 1-.155.447Z" class="color0a0909 svgShape"></path><path fill="#2f3e46" d="M229.147 126.868a.25.25 0 0 1-.222-.136 1.31 1.31 0 0 0-1.843-.647.25.25 0 0 1-.23-.444 2.042 2.042 0 0 1 1.438-.13 1.86 1.86 0 0 1 1.08.993.25.25 0 0 1-.223.364ZM177.223 150.904a.124.124 0 0 1-.04-.007 21.4 21.4 0 0 1-4.32-2.643.125.125 0 0 1 .15-.2 21.193 21.193 0 0 0 4.25 2.606.125.125 0 0 1-.04.244ZM176.848 151.386a.125.125 0 0 1-.035-.005 26.114 26.114 0 0 1-4.643-2.642.126.126 0 0 1-.032-.175.128.128 0 0 1 .175-.031 26.51 26.51 0 0 0 4.57 2.608.125.125 0 0 1-.035.245ZM176.259 152.136h-1.715a.125.125 0 0 1 0-.25h1.715a.125.125 0 1 1 0 .25ZM180.4 163.162c-.479 0-.848-.228-1.124-.927a.125.125 0 0 1 .233-.092c.311.791.712.856 1.382.702a.125.125 0 1 1 .057.243 2.47 2.47 0 0 1-.548.074ZM221.955 162.957a.125.125 0 0 1-.097-.204c.058-.069 5.683-6.959 5.82-10.931a.125.125 0 0 1 .124-.12h.005a.125.125 0 0 1 .12.128c-.139 4.058-5.641 10.797-5.875 11.082a.126.126 0 0 1-.097.045ZM236.607 181.198a.125.125 0 0 1-.084-.218c6.979-6.238 15.537-19.449 15.622-19.582a.125.125 0 1 1 .21.136c-.086.133-8.662 13.372-15.664 19.632a.124.124 0 0 1-.084.032Z" class="color0a0909 svgShape"></path><path fill="#2f3e46" d="M250.19 166.288a5.208 5.208 0 0 1-1.094-.108.125.125 0 0 1 .06-.243c.15.038 3.67.855 4.797-2.502a.125.125 0 1 1 .237.08 3.934 3.934 0 0 1-4 2.773Z" class="color0a0909 svgShape"></path><circle cx="214.945" cy="134.828" r=".673" fill="#2f3e46" class="color0a0909 svgShape"></circle><circle cx="218.541" cy="131.232" r=".673" fill="#2f3e46" class="color0a0909 svgShape"></circle><path fill="#2f3e46" d="M219.213 137.448a.25.25 0 0 1-.25-.24 1.224 1.224 0 0 1 .963-1.217.25.25 0 1 1 .12.485.72.72 0 0 0-.583.712.25.25 0 0 1-.24.26ZM210.746 138.247a.124.124 0 0 1-.084-.031.126.126 0 0 1-.01-.177l3.075-3.44a.125.125 0 1 1 .186.167l-3.074 3.44a.126.126 0 0 1-.093.041ZM219.213 134.571a3.34 3.34 0 1 1 3.34-3.34 3.343 3.343 0 0 1-3.34 3.34Zm0-6.429a3.09 3.09 0 1 0 3.09 3.09 3.093 3.093 0 0 0-3.09-3.09Z" class="color0a0909 svgShape"></path><path fill="#ffffff" d="M221.008 139.913a5.644 5.644 0 0 1-3.283-.994c-2.729-1.904-5.54-6.037-5.658-6.212a.25.25 0 1 1 .414-.28c.029.042 2.878 4.232 5.53 6.082 2.573 1.796 5.757.337 5.788.321a.25.25 0 0 1 .213.453 7.704 7.704 0 0 1-3.004.63Z" class="colorfff svgShape"></path><path fill="#2f3e46" d="M213.68 139.573a3.34 3.34 0 1 1 3.34-3.34 3.343 3.343 0 0 1-3.34 3.34Zm0-6.428a3.09 3.09 0 1 0 3.09 3.089 3.092 3.092 0 0 0-3.09-3.089ZM220.197 128.296a.125.125 0 0 1-.08-.22l4.514-3.796a.125.125 0 1 1 .161.191l-4.515 3.796a.126.126 0 0 1-.08.03Z" class="color0a0909 svgShape"></path><path fill="#2f3e46" d="M215.619 133.798h-.004a.125.125 0 0 1-.121-.129 1.127 1.127 0 0 1 .885-.983.127.127 0 0 1 .155.087.125.125 0 0 1-.087.155.87.87 0 0 0-.703.75.125.125 0 0 1-.125.12Z" class="color0a0909 svgShape"></path><path fill="#ffffff" d="m271.857 202.537-48.898-.02a.25.25 0 0 1 0-.5l48.898.02a.25.25 0 0 1 0 .5ZM280.536 236.298l-56.475-.02a.25.25 0 0 1 0-.5l56.475.02a.25.25 0 0 1 0 .5Z" class="colorfff svgShape"></path></g><g fill="#2f3e46" class="color000 svgShape"><path fill="#52796f" d="M75.727 148.474h143.719v10.382H75.727z" transform="rotate(45 147.587 153.665)" class="colorfeb91e svgShape"></path><g clip-path="url(#a)" fill="#2f3e46" class="color000 svgShape"><path fill="#2f3e46" d="M108.314 112.484a5.596 5.596 0 0 1-4.363-1.877c-3.152-3.567-1.673-9.035-1.609-9.266a.375.375 0 1 1 .723.2c-.015.054-1.431 5.311 1.448 8.57 2.82 3.19 7.651.707 7.699.68a.375.375 0 0 1 .35.664 10.312 10.312 0 0 1-4.248 1.03ZM97.804 109.69a.375.375 0 0 1-.362-.476 7.466 7.466 0 0 0-.95-6.15.375.375 0 1 1 .597-.454 8.124 8.124 0 0 1 1.076 6.804.375.375 0 0 1-.361.275ZM115.705 117.895a13.232 13.232 0 0 1-5.775-1.144 8.501 8.501 0 0 0-6.772.004.375.375 0 0 1-.323-.677 9.09 9.09 0 0 1 7.432.003c3.307 1.664 8.196.869 8.245.86a.375.375 0 0 1 .124.74 19.22 19.22 0 0 1-2.93.214ZM120.152 133.947a.376.376 0 0 1-.372-.33c-.006-.054-.676-5.402-3.393-9.052-2.645-3.551-8.128-2.646-8.184-2.636a.375.375 0 1 1-.128-.74c.242-.043 5.996-.988 8.913 2.928 2.84 3.814 3.51 9.184 3.537 9.41a.375.375 0 0 1-.328.417.356.356 0 0 1-.045.003ZM126.853 128.543a6.87 6.87 0 0 1-3.102-.701c-2.705-1.363-1.887-6.668-1.85-6.893a.375.375 0 0 1 .74.118c-.008.05-.77 4.989 1.447 6.105a7.028 7.028 0 0 0 4.892.311.375.375 0 0 1 .243.71 7.946 7.946 0 0 1-2.37.35ZM127.465 141.26a.375.375 0 0 1-.117-.731c2.143-.707 3.35-2.023 3.226-3.522a3.745 3.745 0 0 0-3.418-3.064 6.824 6.824 0 0 1-5.389-5.02.375.375 0 0 1 .733-.163 5.955 5.955 0 0 0 4.772 4.442 4.483 4.483 0 0 1 4.05 3.744c.153 1.867-1.245 3.473-3.74 4.295a.36.36 0 0 1-.117.019ZM143.45 143.036c-1.626 0-6.825-.205-8.284-2.759-1.657-2.898-.96-6.836-.93-7.002a.375.375 0 0 1 .738.135c-.007.038-.676 3.838.843 6.495 1.477 2.586 8.017 2.374 8.085 2.374a.382.382 0 0 1 .389.361.374.374 0 0 1-.361.388c-.04.002-.212.008-.48.008ZM146.462 149.235c-2.806 0-6.603-.451-8.67-2.617a7.736 7.736 0 0 0-7.177-2.317.375.375 0 0 1-.193-.725 8.381 8.381 0 0 1 7.912 2.524c3.205 3.356 11.427 2.178 11.51 2.165a.382.382 0 0 1 .426.315.376.376 0 0 1-.316.427 25.826 25.826 0 0 1-3.492.228ZM148.027 155.975a.374.374 0 0 1-.361-.275c-1.414-5.133-8.91-3.344-8.985-3.325a.375.375 0 1 1-.18-.729c.083-.02 8.283-1.975 9.887 3.854a.374.374 0 0 1-.262.461.37.37 0 0 1-.1.014ZM155.47 169.265a.375.375 0 0 1-.322-.569 7.979 7.979 0 0 0-1.342-8.835c-3.109-3.66-.027-7.243.005-7.28a.375.375 0 0 1 .563.496 4.779 4.779 0 0 0 .003 6.298 8.631 8.631 0 0 1 1.414 9.708.374.374 0 0 1-.322.182ZM173.351 173.328c-2.552 0-9.92-.386-12.08-4.718-2.55-5.114-.561-8.78-.475-8.932a.375.375 0 0 1 .655.365c-.02.035-1.873 3.49.491 8.232 2.353 4.72 12.14 4.294 12.237 4.286a.365.365 0 0 1 .393.356.375.375 0 0 1-.356.393c-.067.003-.379.018-.865.018ZM172.667 186.46h-.018a.375.375 0 0 1-.357-.39c.002-.06.227-6.016-2.64-8.995-2.81-2.92-7.33-1.185-7.375-1.167a.375.375 0 0 1-.276-.698c.205-.08 5.038-1.933 8.191 1.344 3.092 3.213 2.86 9.291 2.849 9.548a.375.375 0 0 1-.374.359ZM179.642 190.287a.365.365 0 0 1-.118-.019.375.375 0 0 1-.238-.473c.006-.019.643-2.23-2.19-6.006a6.281 6.281 0 0 1 .018-7.904.375.375 0 0 1 .563.496 5.452 5.452 0 0 0 .018 6.958c3.097 4.128 2.337 6.588 2.303 6.691a.374.374 0 0 1-.356.257ZM189.858 191.227c-2.015 0-4.86-.36-5.992-2.247-1.738-2.895-1.124-6.988-1.097-7.16a.375.375 0 1 1 .741.115c-.006.04-.597 4 1 6.66 1.54 2.568 7.359 1.76 7.417 1.752a.379.379 0 0 1 .425.317.375.375 0 0 1-.318.425 16.548 16.548 0 0 1-2.176.138ZM190.79 196.246a6.958 6.958 0 0 1-4.046-1.095c-2.962-2.091-4.969-.127-5.053-.042a.375.375 0 1 1-.532-.529c.024-.025 2.544-2.497 6.017-.042 3.051 2.157 8.738-.02 8.795-.043a.375.375 0 0 1 .273.699 16.842 16.842 0 0 1-5.453 1.052ZM188.868 202.662a.375.375 0 0 1-.231-.67 11.033 11.033 0 0 1 12.39-.258.375.375 0 0 1-.403.633 10.252 10.252 0 0 0-11.525.216.372.372 0 0 1-.23.08ZM197.191 206.06c-.074 0-1.73-.034-3.152-2.797a.375.375 0 0 1 .667-.343c1.193 2.32 2.479 2.39 2.491 2.39a.378.378 0 0 1 .366.38.372.372 0 0 1-.371.37Z" class="colorfe891e svgShape"></path></g><path fill="#2f3e46" d="M194.729 208.398a.249.249 0 0 1-.177-.073L92.927 106.701a.25.25 0 1 1 .354-.354l101.624 101.625a.25.25 0 0 1-.176.426ZM138.536 167.502h5.804v146h-5.804z" class="color0a0909 svgShape"></path><circle cx="142.34" cy="162.664" r="10.125" fill="#354f52" class="color464d7b svgShape"></circle></g></svg></g></svg>