<svg width="20" height="21" viewBox="0 0 20 21" fill="none" xmlns="http://www.w3.org/2000/svg">
<g clip-path="url(#clip0_11_390)">
<path d="M19.9894 10.6305C19.9894 9.79195 19.9214 9.18006 19.7741 8.54552H10.1992V12.3301H15.8195C15.7062 13.2707 15.0943 14.6871 13.7345 15.6388L13.7155 15.7656L16.7429 18.1109L16.9526 18.1318C18.8789 16.3528 19.9894 13.7352 19.9894 10.6305Z" fill="#4285F4"/>
<path d="M10.1992 20.602C12.9527 20.602 15.2642 19.6955 16.9526 18.1318L13.7345 15.6388C12.8734 16.2394 11.7176 16.6587 10.1992 16.6587C7.50236 16.6587 5.21346 14.8797 4.39753 12.4208L4.27793 12.431L1.12997 14.8672L1.08881 14.9817C2.76582 18.313 6.21054 20.602 10.1992 20.602Z" fill="#34A853"/>
<path d="M4.39754 12.4208C4.18225 11.7863 4.05765 11.1063 4.05765 10.4038C4.05765 9.70126 4.18225 9.02141 4.38621 8.38686L4.38051 8.25172L1.1931 5.77635L1.08882 5.82596C0.397637 7.20839 0.0010376 8.76081 0.0010376 10.4038C0.0010376 12.0469 0.397637 13.5992 1.08882 14.9817L4.39754 12.4208Z" fill="#FBBC05"/>
<path d="M10.1992 4.14894C12.1142 4.14894 13.4059 4.97612 14.1425 5.66738L17.0206 2.8572C15.253 1.21416 12.9527 0.205673 10.1992 0.205673C6.21054 0.205673 2.76582 2.49458 1.08881 5.82595L4.3862 8.38686C5.21346 5.92797 7.50236 4.14894 10.1992 4.14894Z" fill="#EB4335"/>
</g>
<defs>
<clipPath id="clip0_11_390">
<rect width="20" height="20.4666" fill="white" transform="translate(0 0.205673)"/>
</clipPath>
</defs>
</svg>
