<svg xmlns="http://www.w3.org/2000/svg" xmlns:xlink="http://www.w3.org/1999/xlink" width="500" zoomAndPan="magnify" viewBox="0 0 375 374.999991" height="500" preserveAspectRatio="xMidYMid meet" version="1.0"><defs><g/></defs><rect x="-37.5" width="450" fill="#ffffff" y="-37.499999" height="449.999989" fill-opacity="1"/><rect x="-37.5" width="450" fill="#ffffff" y="-37.499999" height="449.999989" fill-opacity="1"/><g fill="#3c5050" fill-opacity="1"><g transform="translate(0.0000045, 205.308966)"><g><path d="M 13.519531 -34.125 C 13.519531 -38.386719 15.878906 -40.160156 21.523438 -40.160156 C 27.496094 -40.160156 30.054688 -37.929688 30.054688 -32.8125 L 39.765625 -32.8125 C 39.765625 -42.917969 34.320312 -47.246094 21.523438 -47.246094 C 8.726562 -47.246094 3.28125 -42.851562 3.28125 -32.546875 C 3.28125 -16.144531 30.1875 -22.3125 30.1875 -11.8125 C 30.1875 -7.613281 27.625 -5.773438 21.523438 -5.773438 C 15.027344 -5.773438 12.335938 -7.941406 12.335938 -13.125 L 2.625 -13.125 C 2.625 -3.019531 8.269531 1.3125 21.523438 1.3125 C 34.78125 1.3125 40.421875 -3.085938 40.421875 -13.386719 C 40.421875 -30.972656 13.519531 -25.328125 13.519531 -34.125 Z M 13.519531 -34.125 "/></g></g></g><g fill="#3c5050" fill-opacity="1"><g transform="translate(43.047605, 205.308966)"><g><path d="M 4.59375 -16.929688 C 4.59375 -4.132812 10.433594 1.3125 24.148438 1.3125 C 37.863281 1.3125 43.703125 -4.132812 43.703125 -16.929688 L 43.703125 -45.933594 L 32.941406 -45.933594 L 32.941406 -16.929688 C 32.941406 -9.84375 30.316406 -6.890625 24.148438 -6.890625 C 17.980469 -6.890625 15.421875 -9.84375 15.421875 -16.929688 L 15.421875 -45.933594 L 4.59375 -45.933594 Z M 4.59375 -16.929688 "/></g></g></g><g fill="#3c5050" fill-opacity="1"><g transform="translate(91.344917, 205.308966)"><g><path d="M 5.25 0 L 15.550781 0 L 15.550781 -32.746094 L 27.296875 0 L 33.859375 0 L 45.671875 -32.746094 L 45.671875 0 L 55.910156 0 L 55.910156 -45.933594 L 41.800781 -45.933594 L 30.84375 -14.632812 L 19.882812 -45.933594 L 5.25 -45.933594 Z M 5.25 0 "/></g></g></g><g fill="#3c5050" fill-opacity="1"><g transform="translate(152.50401, 205.308966)"><g><path d="M 5.25 0 L 15.550781 0 L 15.550781 -32.746094 L 27.296875 0 L 33.859375 0 L 45.671875 -32.746094 L 45.671875 0 L 55.910156 0 L 55.910156 -45.933594 L 41.800781 -45.933594 L 30.84375 -14.632812 L 19.882812 -45.933594 L 5.25 -45.933594 Z M 5.25 0 "/></g></g></g><g fill="#3c5050" fill-opacity="1"><g transform="translate(213.663103, 205.308966)"><g><path d="M 5.25 -45.933594 L 5.25 0 L 16.078125 0 L 16.078125 -45.933594 Z M 5.25 -45.933594 "/></g></g></g><g fill="#3c5050" fill-opacity="1"><g transform="translate(234.99003, 205.308966)"><g><path d="M 39.765625 -45.933594 L 1.96875 -45.933594 L 1.96875 -37.730469 L 15.488281 -37.730469 L 15.488281 0 L 26.25 0 L 26.25 -37.730469 L 39.765625 -37.730469 Z M 39.765625 -45.933594 "/></g></g></g><path stroke-linecap="butt" transform="matrix(0.20767, -0.205069, 0.205069, 0.20767, 297.448696, 205.679636)" fill="none" stroke-linejoin="miter" d="M -0.00206601 10.005062 L 135.922727 10.000379 " stroke="#3c5050" stroke-width="20" stroke-opacity="1" stroke-miterlimit="4"/><path stroke-linecap="butt" transform="matrix(0.209487, 0.203213, -0.203213, 0.209487, 328.778508, 181.110927)" fill="none" stroke-linejoin="miter" d="M -0.00524947 10.495782 L 120.29605 10.507527 " stroke="#3c5050" stroke-width="21" stroke-opacity="1" stroke-miterlimit="4"/><path stroke-linecap="butt" transform="matrix(0.214402, 0.198021, -0.198021, 0.214402, 325.676935, 159.795575)" fill="none" stroke-linejoin="miter" d="M -0.000589032 10.992836 L 230.042295 10.999543 " stroke="#3c5050" stroke-width="22" stroke-opacity="1" stroke-miterlimit="4"/><path stroke-linecap="butt" transform="matrix(0.202769, -0.209917, 0.209917, 0.202769, 280.955026, 205.496471)" fill="none" stroke-linejoin="miter" d="M 0.00448164 11.002854 L 219.271137 11.0055 " stroke="#3c5050" stroke-width="22" stroke-opacity="1" stroke-miterlimit="4"/></svg>