<svg id="Layer_1" data-name="Layer 1" xmlns="http://www.w3.org/2000/svg" viewBox="0 0 500 500"><path d="M440,411H60a9,9,0,0,0,0,18H440a9,9,0,0,0,0-18Z" style="fill:#354f52"/><path d="M316,368.05a9,9,0,0,0,12.08-4L380,260.12,425.44,351H380a9,9,0,0,0,0,18h60a9,9,0,0,0,8.05-13l-60-120a9,9,0,0,0-16.1,0L312,356A9,9,0,0,0,316,368.05Z" style="fill:#354f52"/><path d="M236,148.05a9,9,0,0,0,12.08-4L260,120.12,332,264a9,9,0,1,0,16.1-8l-80-160A9,9,0,0,0,252,96l-20,40A9,9,0,0,0,236,148.05Z" style="fill:#354f52"/><path d="M60,369H280a9,9,0,0,0,8.05-13l-20-40a9,9,0,1,0-16.1,8l13.49,27H60a9,9,0,0,0,0,18Z" style="fill:#354f52"/><path d="M54.64,274.23a9,9,0,0,0,12.59-1.87L80,255.06,132.8,325.4A9,9,0,0,0,140,329a7.32,7.32,0,0,0,.81,0,9,9,0,0,0,7.24-4.94L200,220.12,232,284a9,9,0,1,0,16.1-8l-40-80a9,9,0,0,0-16.1,0L138.46,303,87.2,234.6A9,9,0,0,0,80,231h0a9,9,0,0,0-7.2,3.64l-20,27A9,9,0,0,0,54.64,274.23Z" style="fill:#354f52"/></svg>