<svg id="Layer_1" data-name="Layer 1" xmlns="http://www.w3.org/2000/svg" viewBox="0 0 500 500"><path d="M440,411H60a9,9,0,0,0,0,18H440a9,9,0,0,0,0-18Z" style="fill:#354f52"/><path d="M311.53,357c0,.09,0,.18-.08.27a7.42,7.42,0,0,0-.22.77l-.06.28q-.07.44-.12.87a.88.88,0,0,0,0,.16,7.53,7.53,0,0,0,0,1.06c0,.05,0,.1,0,.15a8.58,8.58,0,0,0,.1.87,2.87,2.87,0,0,0,.05.31c.05.25.11.49.18.74,0,.09,0,.19.08.28a7.89,7.89,0,0,0,.36,1l.06.13c.13.28.28.55.43.81,0,0,0,.08.06.11a1.47,1.47,0,0,0,.1.13,8,8,0,0,0,.49.7l.13.17a9.58,9.58,0,0,0,1.53,1.45l.23.17c.21.14.42.28.64.41l.3.17.21.12.38.16.43.19q.33.12.66.21l.38.12.82.16.24,0A10.34,10.34,0,0,0,320,369H440a9,9,0,0,0,8.05-13l-60-120a9,9,0,0,0-16.1,0L312,356A10.47,10.47,0,0,0,311.53,357Z" style="fill:#354f52"/><path d="M236,148.05a9,9,0,0,0,12.08-4L260,120.12,332,264a9,9,0,1,0,16.1-8.06l-80-160A9,9,0,0,0,252,96l-20,40A9,9,0,0,0,236,148.05Z" style="fill:#354f52"/><path d="M60,351a9,9,0,0,0,0,18H280a9,9,0,0,0,8.87-7.47,10.55,10.55,0,0,0,.12-1.13,9,9,0,0,0-.94-4.43l-40-80-40-80a9,9,0,0,0-16.1,0L138.46,303,87.2,234.6A9,9,0,0,0,80,231h0a9,9,0,0,0-7.2,3.64l-20,27a9,9,0,0,0,14.46,10.72L80,255.06,129.46,321l-15,30.05Z" style="fill:#354f52"/></svg>