<svg id="Layer_1" data-name="Layer 1" xmlns="http://www.w3.org/2000/svg" viewBox="0 0 500 500"><path d="M108.57,396.79a40.83,40.83,0,0,1-6.17-.47,42.59,42.59,0,0,1-6-1.33,24.14,24.14,0,0,1-5.09-2.17,4.94,4.94,0,0,1-2.23-2.27,5.11,5.11,0,0,1-.47-2.85,5,5,0,0,1,1.08-2.56A4.06,4.06,0,0,1,92,383.69a4.73,4.73,0,0,1,3.14.54,23.89,23.89,0,0,0,6.46,2.46,31.29,31.29,0,0,0,7,.79q5.28,0,7.51-1.62a4.89,4.89,0,0,0,2.24-4.08,4,4,0,0,0-1.59-3.32,14.52,14.52,0,0,0-5.56-2.09L103,374.63q-6.93-1.44-10.29-4.94a12.72,12.72,0,0,1-3.35-9.2,14.18,14.18,0,0,1,1.51-6.57,15.43,15.43,0,0,1,4.26-5.12,19.62,19.62,0,0,1,6.53-3.32,28.54,28.54,0,0,1,8.34-1.16,33.13,33.13,0,0,1,7.94,1,23.18,23.18,0,0,1,6.85,2.86,4.51,4.51,0,0,1,2,2.2,5.17,5.17,0,0,1,.36,2.67,4.29,4.29,0,0,1-1.08,2.34,4.07,4.07,0,0,1-2.28,1.3,5.23,5.23,0,0,1-3.32-.65,20.38,20.38,0,0,0-5-1.8,25.55,25.55,0,0,0-5.48-.58,14.72,14.72,0,0,0-5.16.8,7.12,7.12,0,0,0-3.25,2.23,5.26,5.26,0,0,0-1.12,3.32,4.27,4.27,0,0,0,1.51,3.4,12.34,12.34,0,0,0,5.27,2.09l8.16,1.73q7.06,1.51,10.54,4.87a11.76,11.76,0,0,1,3.46,8.84,14.61,14.61,0,0,1-1.44,6.54,14.23,14.23,0,0,1-4.19,5,19.75,19.75,0,0,1-6.57,3.21A30.41,30.41,0,0,1,108.57,396.79Z" style="fill:#354f52"/><path d="M165.67,396.79a29.75,29.75,0,0,1-9.57-1.41,18,18,0,0,1-7-4.15,17,17,0,0,1-4.23-6.89,30.21,30.21,0,0,1-1.4-9.63V350.17a5.78,5.78,0,0,1,1.44-4.26,5.68,5.68,0,0,1,4.19-1.45,5.56,5.56,0,0,1,4.11,1.45,5.78,5.78,0,0,1,1.44,4.26v24.61q0,6.21,2.82,9.34c1.88,2.1,4.59,3.14,8.16,3.14s6.26-1,8.11-3.14,2.78-5.2,2.78-9.34V350.17a5.74,5.74,0,0,1,1.45-4.26,5.56,5.56,0,0,1,4.11-1.45,5.46,5.46,0,0,1,4.08,1.45,5.85,5.85,0,0,1,1.41,4.26v24.54a27,27,0,0,1-2.49,12.23,16.25,16.25,0,0,1-7.37,7.4A26.74,26.74,0,0,1,165.67,396.79Z" style="fill:#354f52"/><path d="M209.91,396.65a4.92,4.92,0,0,1-3.75-1.37,5.34,5.34,0,0,1-1.3-3.83V349.66a5.11,5.11,0,0,1,1.4-3.82,5.29,5.29,0,0,1,3.86-1.38,6.19,6.19,0,0,1,3.43.83,7.71,7.71,0,0,1,2.35,2.86l16.67,30.45h-2.45l16.67-30.45a7.62,7.62,0,0,1,2.35-2.86,6,6,0,0,1,3.35-.83,5,5,0,0,1,3.79,1.38,5.25,5.25,0,0,1,1.34,3.82v41.79a5.38,5.38,0,0,1-1.3,3.83,5,5,0,0,1-3.76,1.37,5.07,5.07,0,0,1-3.79-1.37,5.27,5.27,0,0,1-1.33-3.83V362.22H249l-13.43,24a7,7,0,0,1-1.84,2.06,5.07,5.07,0,0,1-5.16,0,6.92,6.92,0,0,1-1.8-2l-13.57-24.1H215v29.3a5.46,5.46,0,0,1-1.26,3.83A4.94,4.94,0,0,1,209.91,396.65Z" style="fill:#354f52"/><path d="M280.35,396.65a4.92,4.92,0,0,1-3.75-1.37,5.34,5.34,0,0,1-1.3-3.83V349.66a5.11,5.11,0,0,1,1.4-3.82,5.3,5.3,0,0,1,3.87-1.38,6.18,6.18,0,0,1,3.42.83,7.62,7.62,0,0,1,2.35,2.86L303,378.6h-2.45l16.67-30.45a7.62,7.62,0,0,1,2.35-2.86,6,6,0,0,1,3.35-.83,5,5,0,0,1,3.79,1.38,5.25,5.25,0,0,1,1.34,3.82v41.79a5.38,5.38,0,0,1-1.3,3.83,5,5,0,0,1-3.76,1.37,5,5,0,0,1-3.78-1.37,5.27,5.27,0,0,1-1.34-3.83V362.22h1.59l-13.43,24a7,7,0,0,1-1.84,2.06,4.33,4.33,0,0,1-2.56.69,4.39,4.39,0,0,1-2.6-.72,6.92,6.92,0,0,1-1.8-2l-13.57-24.1h1.73v29.3a5.46,5.46,0,0,1-1.26,3.83A4.92,4.92,0,0,1,280.35,396.65Z" style="fill:#354f52"/><path d="M351.22,396.65a5.51,5.51,0,0,1-4.18-1.52,5.94,5.94,0,0,1-1.45-4.26V350.24A5.94,5.94,0,0,1,347,346a5.51,5.51,0,0,1,4.18-1.52,5.43,5.43,0,0,1,4.12,1.52,5.94,5.94,0,0,1,1.44,4.26v40.63a6.06,6.06,0,0,1-1.4,4.26A5.42,5.42,0,0,1,351.22,396.65Z" style="fill:#354f52"/><path d="M392,396.65a5.49,5.49,0,0,1-4.18-1.52,5.9,5.9,0,0,1-1.45-4.26V354.35H373.6a4.73,4.73,0,0,1-3.47-1.22,4.62,4.62,0,0,1-1.22-3.4,4.56,4.56,0,0,1,1.22-3.42,4.77,4.77,0,0,1,3.47-1.2h36.74a4.74,4.74,0,0,1,3.46,1.2,4.53,4.53,0,0,1,1.23,3.42,4.59,4.59,0,0,1-1.23,3.4,4.71,4.71,0,0,1-3.46,1.22H397.56v36.52a6,6,0,0,1-1.41,4.26A5.38,5.38,0,0,1,392,396.65Z" style="fill:#354f52"/><path d="M440,411H60a9,9,0,0,0,0,18H440a9,9,0,0,0,0-18Z" style="fill:#354f52"/><path d="M316,328.05a9,9,0,0,0,12.08-4L380,220.12,425.44,311H380a9,9,0,0,0,0,18h60a9,9,0,0,0,8.05-13l-60-120a9,9,0,0,0-16.1,0L312,316A9,9,0,0,0,316,328.05Z" style="fill:#354f52"/><path d="M236,108.05a9,9,0,0,0,12.08-4L260,80.12,332,224a9,9,0,1,0,16.1-8l-80-160A9,9,0,0,0,252,56L232,96A9,9,0,0,0,236,108.05Z" style="fill:#354f52"/><path d="M60,329H280a9,9,0,0,0,8.05-13l-20-40a9,9,0,1,0-16.1,8l13.49,27H60a9,9,0,0,0,0,18Z" style="fill:#354f52"/><path d="M54.64,234.23a9,9,0,0,0,12.59-1.87L80,215.06,132.8,285.4A9,9,0,0,0,140,289a7.32,7.32,0,0,0,.81,0,9,9,0,0,0,7.24-4.94L200,180.12,232,244a9,9,0,1,0,16.1-8l-40-80a9,9,0,0,0-16.1,0L138.46,263,87.2,194.6A9,9,0,0,0,80,191h0a9,9,0,0,0-7.2,3.64l-20,27A9,9,0,0,0,54.64,234.23Z" style="fill:#354f52"/></svg>