<svg xmlns="http://www.w3.org/2000/svg" viewBox="0 0 18 18"><title>calendar update 1</title><g fill="currentColor" class="nc-icon-wrapper"><path d="M5.75,3.5c-.414,0-.75-.336-.75-.75V.75c0-.414,.336-.75,.75-.75s.75,.336,.75,.75V2.75c0,.414-.336,.75-.75,.75Z"></path><path d="M12.25,3.5c-.414,0-.75-.336-.75-.75V.75c0-.414,.336-.75,.75-.75s.75,.336,.75,.75V2.75c0,.414-.336,.75-.75,.75Z"></path><circle cx="15.25" cy="15.25" r="1.75" data-color="color-2"></circle><path d="M13.75,2H4.25c-1.517,0-2.75,1.233-2.75,2.75V13.25c0,1.517,1.233,2.75,2.75,2.75h7.5c.414,0,.75-.336,.75-.75s-.336-.75-.75-.75H4.25c-.689,0-1.25-.561-1.25-1.25V7H15v4.801c0,.414,.336,.75,.75,.75s.75-.336,.75-.75V4.75c0-1.517-1.233-2.75-2.75-2.75Z"></path></g></svg>