<svg xmlns="http://www.w3.org/2000/svg" viewBox="0 0 18 18"><title>eye slash</title><g fill="none" stroke="currentColor" class="nc-icon-wrapper"><path d="M14.938,6.597c.401,.45,.725,.891,.974,1.27,.45,.683,.45,1.582,0,2.265-1.018,1.543-3.262,4.118-6.912,4.118-.549,0-1.066-.058-1.552-.162" stroke-linecap="round" stroke-linejoin="round" stroke-width="1.5"></path><path d="M4.956,13.044c-1.356-.876-2.302-2.053-2.868-2.912-.45-.683-.45-1.582,0-2.265,1.018-1.543,3.262-4.118,6.912-4.118,1.62,0,2.963,.507,4.044,1.206" stroke-linecap="round" stroke-linejoin="round" stroke-width="1.5"></path><path d="M11.579,9.956c-.278,.75-.873,1.345-1.623,1.623" stroke-linecap="round" stroke-linejoin="round" stroke-width="1.5"></path><path d="M7.055,10.945c-.498-.498-.805-1.185-.805-1.945,0-1.519,1.231-2.75,2.75-2.75,.759,0,1.447,.308,1.945,.805" stroke-linecap="round" stroke-linejoin="round" stroke-width="1.5"></path><line x1="2" y1="16" x2="16" y2="2" stroke-linecap="round" stroke-linejoin="round" stroke-width="1.5"></line></g></svg>