<svg xmlns="http://www.w3.org/2000/svg" viewBox="0 0 18 18"><title>gear 1</title><g fill="currentColor" class="nc-icon-wrapper"><path d="M15.94,7.441h0l-1.062-.163c-.124-.424-.292-.831-.505-1.218l.636-.867c.368-.501,.316-1.185-.124-1.623l-.456-.456c-.438-.439-1.121-.491-1.624-.124l-.867,.637c-.387-.213-.794-.381-1.217-.505l-.164-1.063c-.095-.614-.614-1.06-1.235-1.06h-.645c-.621,0-1.141,.446-1.235,1.061l-.163,1.062c-.424,.124-.831,.292-1.218,.505l-.867-.636c-.502-.367-1.185-.315-1.623,.125l-.456,.456c-.439,.439-.491,1.122-.124,1.624l.637,.867c-.212,.387-.381,.794-.505,1.217l-1.063,.164c-.614,.095-1.06,.614-1.06,1.235v.645c0,.621,.446,1.141,1.061,1.235l1.062,.163c.124,.424,.292,.831,.505,1.218l-.636,.867c-.367,.501-.315,1.184,.125,1.623l.456,.456c.439,.44,1.123,.492,1.624,.124l.867-.637c.387,.212,.794,.381,1.217,.505l.164,1.063c.095,.614,.614,1.06,1.235,1.06h.645c.621,0,1.141-.446,1.235-1.061l.163-1.062c.424-.124,.831-.292,1.218-.505l.867,.636c.501,.368,1.184,.315,1.623-.124l.456-.456c.439-.439,.491-1.122,.124-1.624l-.637-.867c.213-.387,.381-.794,.505-1.217l1.063-.164c.614-.095,1.06-.614,1.06-1.235v-.645c0-.621-.446-1.141-1.06-1.235Zm-6.94,3.809c-1.243,0-2.25-1.007-2.25-2.25s1.007-2.25,2.25-2.25,2.25,1.007,2.25,2.25-1.007,2.25-2.25,2.25Z"></path></g></svg>