<svg xmlns="http://www.w3.org/2000/svg" viewBox="0 0 18 18"><title>megaphone 1</title><g fill="currentColor" class="nc-icon-wrapper"><path d="M6.696,16.684c-.217,0-.436-.041-.646-.125l-1.945-.773c-.671-.266-1.104-.905-1.104-1.626v-2.704h1.5v2.704c0,.103,.062,.194,.158,.232l1.945,.773c.099,.039,.213,.012,.283-.071l1.666-1.978,1.147,.966-1.667,1.979c-.34,.403-.833,.623-1.337,.623Z" data-color="color-2"></path><path d="M13.5,2c-.283,0-.599,.088-.817,.174s-3.502,1.386-5.182,2.066c-1.672,.677-3.345,1.354-5.16,2.057-.445,.172-.808,.528-.995,.977-.227,.543-.347,1.14-.347,1.726,0,.601,.12,1.188,.355,1.746,.188,.443,.538,.783,.977,.953,0,0,10.14,4.042,10.343,4.123s.539,.178,.824,.178c1.995,0,3.5-3.009,3.5-7s-1.505-7-3.5-7Zm0,12.5c-.815,0-2-2.143-2-5.5s1.185-5.5,2-5.5,2,2.143,2,5.5-1.185,5.5-2,5.5Z"></path><path d="M14.5,9c0-.828-.672-1.5-1.5-1.5-.053,0-.103,.01-.155,.016-.058,.452-.095,.945-.095,1.484s.037,1.032,.095,1.484c.052,.005,.102,.016,.155,.016,.828,0,1.5-.672,1.5-1.5Z" data-color="color-2"></path></g></svg>