<svg xmlns="http://www.w3.org/2000/svg" viewBox="0 0 18 18"><title>school</title><g fill="currentColor" class="nc-icon-wrapper"><path d="M9,4c-.414,0-.75-.336-.75-.75V.75c0-.23,.106-.448,.288-.59,.182-.143,.418-.193,.643-.138,.009,.002,.935,.228,2.069,.228,.414,0,.75,.336,.75,.75v.5c0,.414-.336,.75-.75,.75-.569,0-1.088-.048-1.5-.104v1.104c0,.414-.336,.75-.75,.75Z" data-color="color-2"></path><path d="M16.25,8.5h-.5c-.414,0-.75,.336-.75,.75s.336,.75,.75,.75h.5c.138,0,.25,.112,.25,.25v5c0,.138-.112,.25-.25,.25h-2.25V6.473l.426,.204c.104,.05,.215,.073,.323,.073,.28,0,.548-.157,.677-.426,.179-.374,.021-.822-.353-1l-5.75-2.75c-.205-.098-.442-.098-.647,0L2.926,5.323c-.374,.179-.532,.626-.353,1,.178,.374,.626,.531,1,.353l.426-.204V15.5H1.75c-.138,0-.25-.112-.25-.25v-5c0-.138,.112-.25,.25-.25h.5c.414,0,.75-.336,.75-.75s-.336-.75-.75-.75h-.5c-.965,0-1.75,.785-1.75,1.75v5c0,.965,.785,1.75,1.75,1.75h6.5v-2.25c0-.414,.336-.75,.75-.75s.75,.336,.75,.75v2.25h6.5c.965,0,1.75-.785,1.75-1.75v-5c0-.965-.785-1.75-1.75-1.75Zm-7.75,2.75c0,.414-.336,.75-.75,.75s-.75-.336-.75-.75v-.5c0-.414,.336-.75,.75-.75s.75,.336,.75,.75v.5Zm0-3c0,.414-.336,.75-.75,.75s-.75-.336-.75-.75v-.5c0-.414,.336-.75,.75-.75s.75,.336,.75,.75v.5Zm2.5,3c0,.414-.336,.75-.75,.75s-.75-.336-.75-.75v-.5c0-.414,.336-.75,.75-.75s.75,.336,.75,.75v.5Zm0-3c0,.414-.336,.75-.75,.75s-.75-.336-.75-.75v-.5c0-.414,.336-.75,.75-.75s.75,.336,.75,.75v.5Z"></path></g></svg>